<svg xmlns="http://www.w3.org/2000/svg" viewBox="0 0 900 482"><style>.st0{display:none}.st1{display:inline}.st2{fill:#0d0d71}.st3{display:inline;fill:none;stroke:#fff;stroke-width:5;stroke-miterlimit:10}.st4,.st5{fill:#fff}.st5{display:inline}</style><g id="Layer_1" class="st0"><g class="st1"><path class="st2" d="M0 0h902v912H0z"/></g></g><g id="Layer_3" class="st0"><path class="st3" d="M72 71.5l215.5 1m-216-1l144 145m0 0l72 144m0 0h-216m0 0l144-144m72-144l-72 144m72-144l144 72m-144-72l216-74m0 0l-72 146m-216 72l216-72m0 0v144m0 0l-144 72m144-72l72 72m0 0h144m0 0l-72-144m0 0l-72 144m72-144l-144-72m72-146l153 74m0 0l-81 144m81-144l135 144m0 0v-144m-135 0h135m-144 288l144-144m-720 144v-288m0 288l-135-72m135-216l-135 216m351-216l-144-144m504 144l72-144m0 0l72 144m0 0l72-189m-585 477l153 144m0 0l72-144m0 0l72 144m0 0l72-144m0 0l216 153m-72-297l72 297m-288-297h216m0 0l144-144m-144 0h144m-864 288l-143 72m143-72l72 144m0 0l144-144m0 0l144-216m0 0l216-72m153 144l207 72"/></g><g id="Layer_2" class="st0"><g class="st1"><circle class="st2" cx="71.5" cy="71.5" r="87.7"/><path class="st4" d="M71.5-13.7c47 0 85.2 38.2 85.2 85.2s-38.2 85.2-85.2 85.2-85.2-38.2-85.2-85.2 38.2-85.2 85.2-85.2m0-5c-49.8 0-90.2 40.4-90.2 90.2s40.4 90.2 90.2 90.2 90.2-40.4 90.2-90.2-40.4-90.2-90.2-90.2z"/></g><g class="st1"><circle class="st2" cx="791.5" cy="215.5" r="87.7"/><path class="st4" d="M791.5 130.3c47 0 85.2 38.2 85.2 85.2s-38.2 85.2-85.2 85.2-85.2-38.2-85.2-85.2 38.2-85.2 85.2-85.2m0-5c-49.8 0-90.2 40.4-90.2 90.2s40.4 90.2 90.2 90.2 90.2-40.4 90.2-90.2-40.4-90.2-90.2-90.2z"/></g><g class="st1"><circle class="st2" cx="287.5" cy="72.5" r="55.7"/><path class="st4" d="M287.5 19.3c29.3 0 53.2 23.9 53.2 53.2s-23.9 53.2-53.2 53.2-53.2-23.9-53.2-53.2 23.9-53.2 53.2-53.2m0-5c-32.2 0-58.2 26.1-58.2 58.2s26.1 58.2 58.2 58.2 58.2-26.1 58.2-58.2-26-58.2-58.2-58.2z"/></g><g class="st1"><circle class="st2" cx="648.5" cy="360.5" r="55.7"/><path class="st4" d="M648.5 307.3c29.3 0 53.2 23.9 53.2 53.2s-23.9 53.2-53.2 53.2-53.2-23.9-53.2-53.2 23.9-53.2 53.2-53.2m0-5c-32.2 0-58.2 26.1-58.2 58.2s26.1 58.2 58.2 58.2 58.2-26.1 58.2-58.2-26-58.2-58.2-58.2z"/></g><g class="st1"><path class="st2" d="M576.4 249.9c-18.5 0-33.5-15-33.5-33.5s15-33.5 33.5-33.5 33.5 15 33.5 33.5-15 33.5-33.5 33.5z"/><path class="st4" d="M576.4 185.4c17.1 0 31 13.9 31 31s-13.9 31-31 31-31-13.9-31-31c0-17 13.9-31 31-31m0-5c-19.9 0-36 16.1-36 36s16.1 36 36 36 36-16.1 36-36-16.1-36-36-36z"/></g><g class="st1"><path class="st2" d="M72.5 393.9c-18.5 0-33.5-15-33.5-33.5s15-33.5 33.5-33.5 33.5 15 33.5 33.5-15.1 33.5-33.5 33.5z"/><path class="st4" d="M72.5 329.4c17.1 0 31 13.9 31 31s-13.9 31-31 31-31-13.9-31-31 13.9-31 31-31m0-5c-19.9 0-36 16.1-36 36s16.1 36 36 36 36-16.1 36-36-16.1-36-36-36z"/></g><g class="st1"><path class="st2" d="M648.5 105.9c-18.5 0-33.5-15-33.5-33.5s15-33.5 33.5-33.5 33.5 15 33.5 33.5-15.1 33.5-33.5 33.5z"/><path class="st4" d="M648.5 41.4c17.1 0 31 13.9 31 31s-13.9 31-31 31-31-13.9-31-31 13.9-31 31-31m0-5c-19.9 0-36 16.1-36 36s16.1 36 36 36 36-16.1 36-36-16.1-36-36-36z"/></g><g class="st1"><circle class="st2" cx="214.5" cy="217.5" r="22.9"/><path class="st4" d="M214.5 197.1c11.2 0 20.4 9.1 20.4 20.4s-9.1 20.4-20.4 20.4-20.4-9.1-20.4-20.4 9.2-20.4 20.4-20.4m0-5c-14 0-25.4 11.4-25.4 25.4s11.4 25.4 25.4 25.4 25.4-11.4 25.4-25.4-11.4-25.4-25.4-25.4z"/></g><g class="st1"><circle class="st2" cx="505.5" cy="-.5" r="22.9"/><path class="st4" d="M505.5-20.9c11.2 0 20.4 9.1 20.4 20.4s-9.1 20.4-20.4 20.4-20.4-9.1-20.4-20.4 9.2-20.4 20.4-20.4m0-5c-14 0-25.4 11.4-25.4 25.4s11.4 25.4 25.4 25.4 25.4-11.4 25.4-25.4-11.4-25.4-25.4-25.4z"/></g><g class="st1"><circle class="st2" cx="503.5" cy="360.5" r="22.9"/><path class="st4" d="M503.5 340.1c11.2 0 20.4 9.1 20.4 20.4s-9.1 20.4-20.4 20.4-20.4-9.1-20.4-20.4 9.2-20.4 20.4-20.4m0-5c-14 0-25.4 11.4-25.4 25.4s11.4 25.4 25.4 25.4 25.4-11.4 25.4-25.4-11.4-25.4-25.4-25.4z"/></g><g class="st1"><circle class="st2" cx="790.5" cy="73.5" r="22.9"/><path class="st4" d="M790.5 53.1c11.2 0 20.4 9.1 20.4 20.4s-9.1 20.4-20.4 20.4-20.4-9.1-20.4-20.4 9.2-20.4 20.4-20.4m0-5c-14 0-25.4 11.4-25.4 25.4s11.4 25.4 25.4 25.4 25.4-11.4 25.4-25.4-11.4-25.4-25.4-25.4z"/></g><g class="st1"><path class="st2" d="M430.1 321.1c-18.8 0-34-15.3-34-34 0-18.8 15.3-34 34-34 18.8 0 34 15.3 34 34s-15.2 34-34 34z"/><path class="st4" d="M430.1 255.6c17.4 0 31.5 14.1 31.5 31.5s-14.1 31.5-31.5 31.5-31.5-14.1-31.5-31.5 14.1-31.5 31.5-31.5m0-5c-20.2 0-36.5 16.3-36.5 36.5s16.3 36.5 36.5 36.5 36.5-16.3 36.5-36.5-16.3-36.5-36.5-36.5z"/></g><g class="st1"><circle class="st2" cx="286.5" cy="359.5" r="87.9"/><path class="st4" d="M286.5 274.1c47.1 0 85.4 38.3 85.4 85.4s-38.3 85.4-85.4 85.4-85.4-38.3-85.4-85.4 38.3-85.4 85.4-85.4m0-5c-49.9 0-90.4 40.5-90.4 90.4s40.5 90.4 90.4 90.4 90.4-40.5 90.4-90.4-40.5-90.4-90.4-90.4z"/></g><g class="st1"><circle class="st2" cx="430.5" cy="145.5" r="43.5"/><path class="st4" d="M430.5 104.5c22.6 0 41 18.4 41 41s-18.4 41-41 41-41-18.4-41-41 18.4-41 41-41m0-5c-25.4 0-46 20.6-46 46s20.6 46 46 46 46-20.6 46-46-20.6-46-46-46z"/></g></g><g id="Layer_4" class="st0"><path class="st5" d="M453 296h-1.9v-2c0-.5-.4-.8-.8-.8h-1.5V281h1.3c.5 0 .8-.4.8-.8V277c0-.3-.2-.6-.5-.8l-19.2-7.4c-.2-.1-.4-.1-.6 0l-19.2 7.4c-.3.1-.5.4-.5.8v3.2c0 .5.4.8.8.8h1.8v12.2h-1.8c-.5 0-.8.4-.8.8v2H409c-.5 0-.8.4-.8.8v2.9c0 .5.4.8.8.8h44c.5 0 .8-.4.8-.8v-2.9c0-.4-.3-.8-.8-.8zm-24.3-15.1v12.2h-3v-12.2h3zm-7.6 0v12.2h-3v-12.2h3zm12.3 12.2v-12.2h3v12.2h-3zm7.6 0v-12.2h3v12.2h-3z"/><g class="st1"><path class="st4" d="M319.9 390.2c-.5-.8-1.3-1.3-2.2-1.4-.9-.2-1.8 0-2.6.6-21.1 14.8-50.5 9.4-65.6-12-15-21.4-10.1-50.9 11-65.7 1.5-1.1 1.9-3.1.9-4.7l-5-7.6c-1-1.6-3.2-2-4.8-1-1.6 1-2 3.2-1 4.8l3.2 4.9c-21.9 17.5-27 49.7-10.5 73.3 9.6 13.7 24.7 21.7 39.5 23.1v7.7h-10.2c-1.9 0-3.4 1.2-3.4 3.1 0 1.9 1.5 3.1 3.4 3.1h28.9c1.9 0 3.4-1.2 3.4-3.1 0-1.9-1.5-3.1-3.4-3.1h-11.3v-7.5c8.6-.3 17.7-2.8 25.6-7.7l2.6 3.6c1.1 1.6 3.3 1.9 4.8.9 1.6-1.1 2-3.2.9-4.8l-4.2-6.5z"/><path class="st4" d="M324.5 324.5c-6.4-9.1-15.9-15.4-26.6-17.7h-.2c-3-.6-6-1-9.1-1-8.8 0-17.4 2.6-24.7 7.7-.1 0-.1.1-.1.1-.1.1-.3.2-.4.2-.2.2-.4.3-.7.5-9.8 7.2-15.7 17.7-17.4 28.9-.1.3-.1.5-.1.8-1.3 10.4 1 21.3 7.5 30.5 6.3 9 15.7 15.3 26.3 17.6h.2c3 .7 6.2 1 9.4 1 9 0 17.6-2.7 25-7.9 10.2-7.1 16.5-17.9 18.2-29.4.1-.2.1-.4.1-.6 1.4-10.3-.9-21.3-7.4-30.7zm-25.7-10.4c7 2 13.2 6 18 11.6l-9.7 6.8c-3.8-5-8-9.2-12.3-12.6 1.4-1.9 2.8-3.8 4-5.8zm2.8 48.3c-.1 0-.1 0 0 0-.1 0-.1 0 0 0l-8.2-11.9 11.9-8.4.1-.1v.1h-.4c3 4.8 5.1 9.7 6.3 14.5-3.7 1.6-6.6 3.5-10.1 5.7l.4.1zm-17.8-13.6l-12.3 8.5c-3-4.8-5.3-9.7-6.8-14.5 3.6-1.6 7.3-3.6 10.8-5.9l8.3 11.9zm-2.7-15.9c3.3-2.5 6.3-5.1 9-7.9 3.9 3 7.8 6.9 11.3 11.4l-12 8.4-8.3-11.9zm6.5 21.5l8.3 11.9c-3.4 2.5-6.4 5.2-9.2 8-3.9-3-7.8-6.9-11.3-11.4l12.2-8.5zm17.7-12.4zm-16.7-29.3c.9 0 1.9 0 2.8.1-.7 1-1.5 2.1-2.4 3.2-1.9-1.1-3.8-2.1-5.8-2.9 1.8-.3 3.6-.4 5.4-.4zm-15.5 5.1c3.4 0 7.2 1.2 11.1 3.3-2.2 2.1-4.5 4.2-7.1 6.1l-6.4-9.2c.8-.1 1.6-.2 2.4-.2zm-8 4l6.5 9.4c-2.8 1.8-5.7 3.4-8.5 4.7-.1-.4-.1-.8-.2-1.2-.6-5.4.2-9.9 2.2-12.9zm-9.3 10.9c0 .9.1 1.8.2 2.8.1 1 .3 2.1.5 3.1-1.1.4-2.3.8-3.4 1.1.7-2.4 1.6-4.8 2.7-7zm.8 35c-3.7-6.5-5.2-13.6-4.7-20.7 2.1-.4 4.2-1 6.4-1.7 1.7 5.3 4.3 10.7 7.6 15.9l-9.3 6.5zm21.6 17.2c-6.9-2-13.1-6-17.8-11.6l9.3-6.5c3.8 5 8 9.2 12.3 12.6-1.3 1.9-2.6 3.7-3.8 5.5zm10.4 1.5c-1 0-2 0-3-.1.7-1 1.4-1.9 2.2-2.9 1.8 1.1 3.6 2 5.4 2.7-1.5.2-3 .3-4.6.3zm15.1-4.9c-3.4 0-7.2-1.2-11.1-3.3 2.2-2.2 4.6-4.2 7.2-6.2l6.4 9.2c-.8.2-1.6.3-2.5.3zm8.2-4.2l-6.4-9.3c2.7-1.7 5.5-3.3 8.3-4.6.1.4.1.8.2 1.2.5 5.3-.2 9.8-2.1 12.7zm9.1-10.1c-.1-2-.3-4.2-.7-6.4 1.3-.4 2.5-.8 3.8-1.2-.8 2.6-1.8 5.2-3.1 7.6zm3.8-14.9c-2.5.4-3.7 1-6.1 1.8-2.5-5.2-4.3-10.6-7.6-15.9l9.7-6.8c3.2 5.7 4.5 11.9 4.5 18.1-.1.9-.5 1.8-.5 2.8z"/></g><g class="st1"><path class="st4" d="M228.7 211.6c-.1-.2-.3-.4-.5-.4h-.8c-5.3 0-8.8 1.7-10.5 2.8-3.5-3.6-6.5-4.6-6.6-4.6-.2-.1-.3 0-.4.1-5.1 3-10.2 8.4-10.4 8.6-.1.1-.2.3-.2.5s.2.3.3.4c.1 0 5.7 2.8 9.5 9.9.1.2.3.3.4.3h.1c.2 0 .3-.1.4-.2 4.7-5.4 10.9-7.7 11.3-7.8h.1s.1 0 .1-.1l.1-.1v-.1c2.5-5.5 6.8-8.5 6.8-8.6.3-.2.3-.4.3-.7zm-8.4 8.7c-.1 0-.1.1-.2.1-1.9.8-6.5 3-10.5 7.2-3.2-5.5-7.3-8.3-9-9.3 1.4-1.4 5.5-5.4 9.4-7.8.7.3 3.1 1.4 5.8 4.1l.4.4c1 1 2.1 2.3 3.1 3.8.4.6.7 1 1 1.5z"/><path class="st4" d="M203.7 217.8c-.3-.2-.6-.1-.8.2s-.1.6.2.8c1 .7 1.9 1.4 2.7 2.2.1.1.3.2.4.2.2 0 .3-.1.4-.2.2-.2.2-.6 0-.8-.9-1-1.9-1.7-2.9-2.4zm.9-.7c1.1.7 2.1 1.4 2.9 2.2.1.1.3.1.4.1.2 0 .3-.1.4-.2.2-.2.2-.6 0-.8-.9-.8-1.9-1.6-3-2.3-.3-.2-.6-.1-.8.2-.2.3-.1.7.1.8zm1.8-1.3c1 .6 1.9 1.3 2.8 2 .1.1.2.1.3.1.2 0 .3-.1.4-.2.2-.2.2-.6-.1-.8-.9-.8-1.9-1.5-2.9-2.1-.3-.2-.6-.1-.8.2 0 .2.1.6.3.8zm5.2 2.7c-.2-.2-.5-.2-.7-.1-1.1.7-2.3 1.7-3.7 3.4-.2.2-.2.5 0 .7.2.2.3.3.4.5.6.6 1.1 1.2 1.7 2.3.1.2.2.3.4.3h.1c.1 0 .3-.1.4-.2 1.6-1.4 2.7-2.2 3.7-2.9.3-.2.3-.5.2-.8-.7-1.3-1.3-2.1-2.5-3.2zm-1.5 5.7c-.5-.8-1-1.4-1.5-1.9l-.1-.1c1-1.2 1.9-2 2.8-2.6.8.8 1.3 1.4 1.8 2.3-1 .6-1.9 1.3-3 2.3zm-1.3-10.8c-.3-.2-.6-.1-.8.2-.2.3-.1.6.2.8 3 1.7 5.5 4.1 7.2 6.9.1.2.3.3.5.3.1 0 .2 0 .3-.1.3-.2.3-.5.2-.8-1.8-2.9-4.4-5.5-7.6-7.3zm1.7-1.4c-.3-.2-.6 0-.8.2-.2.3 0 .6.2.8 3.2 1.7 5.7 4 7.4 6.9.1.2.3.3.5.3.1 0 .2 0 .3-.1.3-.2.3-.5.2-.8-.4-.8-.9-1.5-1.5-2.1-.5-.6-1-1.2-1.5-1.7-1.4-1.3-3-2.5-4.8-3.5z"/></g><g class="st1"><path class="st4" d="M840.4 205.6h-14.2v-34.9c0-1.8-2.1-4-3.9-4h-74c-1.8 0-3.8 2.2-3.8 4v52.2s-13.2 10.7-14.7 12c-.5.4-.9 1.2-.9 2v4.2c0 1.8 1.7 3.5 3.5 3.5H808V263c0 1.3.7 2.4 2 2.4h30.8c1.3 0 2.2-1 2.2-2.4v-54.1c.1-1.4-1.2-3.3-2.6-3.3zM808 239.4h-72.6c-.7 0-1.7-.9-1.7-2 0-1 .8-1.9 1.5-1.9h72.7l.1 3.9zm.1-30.6v11.1H751v-46.7h68.8v32.4h-8.7c-1.4 0-3 1.9-3 3.2zm20.5 51.7c-.5 1-1.6 1.7-2.8 1.7s-2.3-.7-2.8-1.7c-.2-.4-.4-.9-.4-1.5 0-.7.2-1.3.5-1.8.6-.8 1.5-1.4 2.6-1.4s2.1.6 2.6 1.4c.3.5.5 1.1.5 1.8.2.6 0 1.1-.2 1.5zm9.3-8.2h-24.6v-41.5h24.6v41.5z"/><path class="st4" d="M784.4 176.1c-1-.7-2.4-.5-3.2.5l-26.4 35.7c-.7 1-.5 2.4.5 3.2.4.3.9.4 1.3.4.7 0 1.4-.3 1.8-.9l26.4-35.7c.8-1 .6-2.4-.4-3.2zm-29.1 23.8c.4.3.9.4 1.3.4.7 0 1.4-.3 1.8-.9l15.5-20.5c.7-1 .5-2.4-.5-3.2s-2.4-.5-3.2.5l-15.5 20.5c-.7 1.1-.5 2.5.6 3.2zm60.9 27.3c.4.3.9.4 1.3.4.7 0 1.4-.3 1.8-.9l6.5-8.8c.7-1 .5-2.4-.5-3.2-1-.7-2.4-.5-3.2.5l-6.5 8.8c-.6 1-.4 2.4.6 3.2zm1.3 12.5c.4.3.9.4 1.3.4.7 0 1.4-.3 1.8-.9l13.9-19.2c.7-1 .5-2.4-.5-3.2-1-.7-2.4-.5-3.2.5l-13.9 19.2c-.6 1-.4 2.5.6 3.2z"/></g><g class="st1"><path class="st4" d="M672.3 359.1c0-13.4-10.9-24.3-24.3-24.3s-24.2 11-24.2 24.3c0 8.1 4.1 15.7 10.8 20.2V392c0 1.5 1.2 2.7 2.7 2.7h21.5c1.5 0 2.7-1.2 2.7-2.7v-12.7c6.7-4.4 10.8-12 10.8-20.2zm-43.2 0c0-10.4 8.5-18.9 18.9-18.9s18.9 8.5 18.9 18.9c0 6.7-3.6 13-9.5 16.4-.8.5-1.3 1.4-1.3 2.4v1.7h-5.4v-8.8c.4 0 .7.1 1.1.1 3 0 5.8-1.1 7.9-3.3 2.8-2.8 3.9-7 2.9-10.8-.2-.9-1-1.6-1.9-1.9-1-.2-1.9-.4-2.9-.4-3 0-5.8 1.1-7.9 3.3-.8.8-1.5 1.7-2 2.6-.5-.8-1.1-1.6-1.7-2.3-2-2-4.7-3.2-7.7-3.2-1 0-1.9.2-2.8.4-.9.2-1.6 1-1.9 1.9-1 3.8.1 7.8 2.8 10.5 2 2 4.7 3.2 7.7 3.2.3 0 .7 0 1-.1v8.8H640v-1.7c0-1-.5-1.9-1.3-2.4-5.9-3.4-9.6-9.6-9.6-16.4zm22.9 6.4c.1-1.5.7-2.9 1.7-3.9 1.1-1.1 2.5-1.6 3.9-1.7-.1 1.5-.7 2.9-1.7 3.9-1 1.1-2.4 1.6-3.9 1.7zm-8-.1c-1.3-.1-2.6-.7-3.5-1.6-1-1-1.5-2.2-1.6-3.5 1.3.1 2.6.7 3.5 1.6.9 1 1.5 2.2 1.6 3.5zm-4 24V385h16.1v4.4H640zm-15.1-50.1c.5.6 1.2.9 2 .9.7 0 1.3-.2 1.8-.7 1.1-1 1.2-2.7.2-3.8l-3.5-3.9c-1-1.1-2.7-1.2-3.8-.2-1.1 1-1.2 2.7-.2 3.8l3.5 3.9zm44.2.9c.7 0 1.5-.3 2-.9l3.4-3.9c1-1.1.9-2.9-.2-3.8-1.1-1-2.9-.9-3.8.2l-3.4 3.9c-1 1.1-.9 2.9.2 3.8.5.6 1.2.7 1.8.7zm14.7 16h-5.3c-1.5 0-2.7 1.2-2.7 2.7s1.2 2.7 2.7 2.7h5.3c1.5 0 2.7-1.2 2.7-2.7s-1.3-2.7-2.7-2.7zm-66.2 0h-5.3c-1.5 0-2.7 1.2-2.7 2.7s1.2 2.7 2.7 2.7h5.3c1.5 0 2.7-1.2 2.7-2.7s-1.3-2.7-2.7-2.7zm30.4-24.1c1.5 0 2.7-1.2 2.7-2.7v-5.5c0-1.5-1.1-2.7-2.7-2.7-1.5 0-2.7 1.2-2.7 2.7v5.5c.1 1.4 1.2 2.7 2.7 2.7z"/><path class="st4" d="M624.9 378.4l-3.4 3.8c-1 1.1-.9 2.8.2 3.8.5.5 1.1.7 1.8.7s1.5-.3 2-.9l3.4-3.8c1-1.1.9-2.8-.2-3.8s-2.8-.9-3.8.2zm46.2 0c-1-1.1-2.7-1.2-3.8-.2-1.1 1-1.2 2.7-.2 3.8l3.4 3.8c.6.6 1.3.9 2 .9s1.3-.2 1.8-.7c1.1-1 1.2-2.7.2-3.8l-3.4-3.8z"/></g><g class="st1"><path class="st4" d="M461.5 143.5h-8.9c-.8 0-1.4.6-1.4 1.4s.6 1.4 1.4 1.4h8.9c.8 0 1.4-.6 1.4-1.4 0-.8-.6-1.4-1.4-1.4zm-13.7-8.7c.3 0 .7-.1 1-.4l6.3-6.3c.5-.5.5-1.5 0-2s-1.5-.5-2 0l-6.3 6.3c-.5.5-.5 1.5 0 2 .3.3.7.4 1 .4zm1 20.6c-.5-.5-1.5-.5-2 0s-.5 1.5 0 2l6.3 6.3c.3.3.7.4 1 .4s.7-.1 1-.4c.5-.5.5-1.5 0-2l-6.3-6.3zm-11.3-34.5h-.3c-.3 0-.5 0-.7.1-.8.2-1.5.7-2.3 1.3L412.8 135h-8.2c-.5 0-1.1.3-1.3.9l-.7 1.5c-2.2 5-2.2 10.6 0 15.6l.7 1.5c.2.5.7.9 1.3.9h8.2l21.5 12.7c.7.7 1.4 1.1 2.3 1.3.2.1.4.1.5.1h.4c5.8 0 8.8-12.2 8.8-24.2 0-12.1-3-24.4-8.8-24.4zm-6 24.1c0-2.4.1-4.6.3-6.7 2.6 1.3 4.2 3.8 4.2 6.7s-1.7 5.5-4.2 6.7c-.1-2-.3-4.3-.3-6.7zm-2.8 0c0 6.6.9 13.1 2.6 17.8l-17.2-10.1c-2.5-4.8-2.5-10.5 0-15.2l17.2-10.1c-1.7 4.5-2.6 11.1-2.6 17.6zm-23.5 6.7c-1.9-4.2-1.9-9.1 0-13.3l.3-.7h5.4c-1.9 4.7-1.9 9.9 0 14.6h-5.4l-.3-.6zm32.3 14.7l-1.4-.8c-1.5-1.6-3-5.4-3.8-10.9 4-1.5 6.7-5.4 6.7-9.6 0-4.3-2.6-8.1-6.7-9.6.9-5.5 2.4-9.3 3.8-10.9l1.4-.8h.1c2.5 0 6 8.3 6 21.3-.1 12.9-3.6 21.3-6.1 21.3z"/></g><g class="st1"><path class="st4" d="M97.1 35.4c0-15.4-12.5-28-28-28-15.4 0-28 12.5-28 28 0 24.3 28 56.6 28 56.6s28-31.9 28-56.6zm-42.4 1c0-8.1 6.6-14.7 14.7-14.7S84 28.3 84 36.4 77.4 51 69.3 51s-14.6-6.5-14.6-14.6z"/><path class="st4" d="M110.3 117.2l-8.5-42.6c-.4-1.8-1.9-2.3-3.7-2.3h-6.4c-.9 1.2-4.1 6.2-4.7 7.5h8l1 6.2H83.5s-5.5 6.4-7.2 8.5l.5 5.2H60.6l.6-6c-1.7-2.1-4-4-6.6-7.7H42.1l1-6.2h8.5c-.7-1.2-3.9-6.2-4.7-7.5H40c-1.8 0-3.3.5-3.7 2.3l-8.6 43.2c-.2 1.1.1 2.8.8 3.7.7.9 1.8 1.9 2.9 1.9h75.2c2.1 0 3.8-2.4 3.8-4.5 0-.3-.1-1.4-.1-1.7zm-58.9-2.5H36l1.6-7.5h14.7l-.9 7.5zm1.8-14.9h-14l1.4-7.5H54l-.8 7.5zm5.8 14.9l.9-7.5h17.9l.9 7.5H59zm24.8-22.4h13.7l1.4 7.5H84.5l-.7-7.5zm2.5 22.4l-.9-7.5h15l1.6 7.5H86.3z"/></g><path class="st5" d="M801.2 64.7H781c-.7 0-1.2.5-1.2 1.2v14.5c0 .7.5 1.2 1.2 1.2h20.3c.7 0 1.2-.5 1.2-1.2V65.9c-.1-.7-.7-1.2-1.3-1.2zm-11.8 5.9c0 1.4-1.2 2.6-2.6 2.6-1.4 0-2.6-1.2-2.6-2.6 0-1.4 1.2-2.6 2.6-2.6 1.4 0 2.6 1.2 2.6 2.6zm10.5 8.5h-17.8v-4.6l3.5 2.2c.6.4 1.4.3 1.9-.1l6.6-5.2c.5-.4 1.3-.5 1.9-.1l3.8 2.3.1 5.5z"/><g class="st1"><path class="st4" d="M646.4 75.9l5-7.1c.2-.3.1-.6-.1-.8-.3-.2-.6-.1-.8.1l-5 7.1c-.7-.2-1.5.1-1.9.7l-2.4 3.3-3.1-3.8c-.7-1.2-1.8-2.2-3.2-2.7 2.1-.9 3.6-2.9 3.6-5.4 0-3.2-2.6-5.8-5.8-5.8s-5.8 2.6-5.8 5.8c0 2.4 1.5 4.5 3.6 5.4-2.4.9-4.1 3.2-4.1 5.8v7.6c0 .3.3.6.6.6h11.2c.3 0 .6-.3.6-.6v-3.8l.8 1.1c.4.4.9.7 1.4.7.5 0 1.1-.3 1.4-.8l3.8-5.3c.7-.6.6-1.5.2-2.1z"/><path class="st4" d="M669.4 59.1h-26.5c-.3 0-.6.3-.6.6v15.6c0 .1.1.1.2 0 .5-.7 1.2-1.1 2-1.3.2 0 .4-.1.5-.3l4.4-6.2c.3-.5.9-.8 1.5-.8.4 0 .7.1 1.1.3.8.6 1 1.7.4 2.5l-4.3 6.2c-.1.2-.2.4-.1.6.2.8 0 1.7-.5 2.4l-.7 1.1c0 .1 0 .2.1.2h22.7c.3 0 .6-.3.6-.6V59.7c-.2-.3-.5-.6-.8-.6z"/></g><g class="st1"><path class="st4" d="M93.7 356.7c0-6.2-5.1-11.3-11.3-11.3-4.8 0-8.9 3.1-10.6 7.3-1.7-4.3-5.8-7.3-10.6-7.3-6.2 0-11.3 5.1-11.3 11.3v14.4c0 .2.1.4.2.5.1.1.3.2.6.2l15.4-1.7c.3 0 .5.1.7.3 1.1 1.7 2.9 2.7 4.9 2.7s3.8-1 4.9-2.7c.1-.2.4-.3.7-.3l15.4 1.7c.2 0 .4 0 .6-.2.1-.1.2-.3.2-.5V368l.2-11.3zM66 367.2c-.5-2.1-2.4-3.5-4.9-3.5s-4.2 1.7-4.7 3.5h-1.9c.4-2.6 3.2-5.2 6.6-5.2 3.5 0 6.3 2.1 6.9 5.2h-2zm3.6 0c-.6-3.9-4-6.7-8.4-6.7-2.1 0-4.1.8-5.7 2.3-1.4 1.3-2.2 2.9-2.4 4.5h-1.7c.4-5.1 4.6-9.1 9.8-9.1s9.4 4 9.8 9.1l-1.4-.1zm1.5-4.8c-1.9-3.4-5.6-5.7-9.9-5.7s-7.9 2.3-9.8 5.7v-5.7c0-5.4 4.4-9.9 9.9-9.9s9.8 4.5 9.8 9.9v5.7zm16 4.8c-.5-2.2-2.4-3.6-4.9-3.6s-4.3 1.8-4.7 3.6h-1.9c.3-2.6 3.1-5.3 6.6-5.3 3.6 0 6.4 2.2 6.9 5.3h-2zm3.6 0c-.5-4-3.9-6.8-8.4-6.8-2.1 0-4.1.8-5.7 2.3-1.4 1.3-2.3 3-2.4 4.6h-1.6c.2-5.1 4.5-9.1 9.8-9.1 5.2 0 9.4 4 9.8 9.1h-1.5zm1.6-4.8c-1.9-3.4-5.6-5.7-9.9-5.7-4.3 0-7.9 2.2-9.9 5.5v-5.4c0-5.4 4.4-9.9 9.9-9.9s9.9 4.4 9.9 9.9v5.6z"/></g><g class="st1"><path class="st4" d="M515.8 355.6l-8.1-2.9c-.4-.1-.9-.1-1.3.1s-.6.6-.7 1.1l-.8 6.7c-.2 0-.3-.1-.5-.1-1.9-.3-3.6.8-3.8 2.4-.2 1.6 1.1 3.1 3 3.4 1.9.3 3.6-.8 3.8-2.4l1-7.7 5.2 1.9-.8 6c-.2-.1-.4-.1-.5-.1-1.9-.3-3.6.8-3.8 2.4-.2 1.6 1.1 3.1 3 3.4 1.8.2 3.5-.6 3.8-2.2 0-.1 1.4-10.3 1.4-10.3.2-.9-.2-1.5-.9-1.7zm-20.4-3.1c-1.8.5-3 2.1-2.6 3.6l1.9 8.6c-.8-.1-1.6-.3-2.1-.8s-.5-1.3-.2-2.5c.2-.8-.3-1.6-1.1-1.8-.8-.2-1.6.3-1.8 1.1-.6 2.2-.3 4 .8 5.3 1.4 1.6 3.6 1.8 5 1.8.7 0 1.2-.1 1.3-.1.4-.1.8-.3 1-.6.2-.4.3-.8.2-1.2l-1.7-7.6c.2 0 .4 0 .6-.1 1.8-.5 3-2.1 2.6-3.6-.2-1.7-2-2.6-3.9-2.1z"/></g><g class="st1"><path class="st4" d="M500.3 6.2c.3-.1.4-.4.4-.7v-.7c.2-.1.4-.3.6-.5l.7.2c.3.1.6 0 .8-.3.2-.2.2-.5.1-.8l-.3-.7c.1-.2.2-.5.3-.7l.7-.1c.3-.1.5-.3.6-.6s0-.6-.3-.8l-.6-.4v-.8l.6-.4c.2-.2.3-.5.3-.8-.1-.3-.3-.5-.6-.6l-.7-.1c-.1-.2-.2-.5-.3-.7l.3-.7c.1-.3.1-.6-.1-.8-.2-.2-.5-.3-.8-.3l-.7.2c-.2-.2-.4-.3-.6-.5v-.7c0-.3-.2-.6-.4-.7-.3-.1-.6-.1-.8.1l-.6.5c-.2-.1-.5-.1-.8-.2l-.3-.7c-.1-.3-.4-.4-.7-.4-.3 0-.6.2-.7.4l-.1 1.1c-.3 0-.5.1-.8.2l-.5-.5c-.2-.2-.5-.2-.8-.1-.3.1-.4.4-.4.7v.7c-.2.1-.4.3-.6.5l-.7-.2c-.3-.1-.6 0-.8.3-.2.2-.2.5-.1.8l.4.6c-.1.2-.2.5-.3.7l-.7.1c-.3.1-.5.3-.6.6s0 .6.3.8l.6.4v.8l-.6.4c-.2.2-.3.5-.3.8.1.3.3.5.6.6l.7.1c.1.2.2.5.3.7l-.3.7c-.1.3-.1.6.1.8.2.2.5.3.8.3l.7-.2c.2.2.4.3.6.5v.7c0 .3.2.6.4.7.3.1.6.1.8-.1l.6-.5c.2.1.5.1.8.2l.3.7c.1.3.4.4.7.4.3 0 .6-.2.7-.4l.3-.7c.3 0 .5-.1.8-.2l.6.5c-.2-.1.1 0 .4-.2zm-2-3.6h-2.2c-.3 0-.5-.1-.7-.4L494.3.3c-.1-.2-.1-.5 0-.8l1.1-1.9c.1-.2.4-.4.7-.4h2.2c.3 0 .5.1.7.4l1.1 1.9c.1.2.1.5 0 .8L499 2.2c-.2.2-.4.4-.7.4z"/><path class="st4" d="M509.1 8l-.6-.1c0-.1-.1-.3-.1-.4l.4-.5c.2-.3.2-.6 0-.9-.2-.3-.5-.4-.9-.3l-.6.2-.3-.3.1-.6c0-.3-.1-.6-.4-.8-.3-.1-.7 0-.9.2l-.4.5c-.1 0-.3 0-.4-.1l-.2-.6c-.2-.1-.5-.3-.8-.3-.3 0-.6.3-.7.6l-.1.6c-.1 0-.3.1-.4.2l-.5-.3c-.3-.2-.6-.2-.9 0s-.4.5-.3.9l.2.6-.3.3-.6-.1c-.3 0-.6.1-.8.4-.1.3 0 .7.2.9l.5.4c0 .1 0 .3-.1.4l-.6.2c-.3.1-.4.4-.4.8 0 .3.3.6.6.6l.6.1c0 .1.1.3.2.4l-.4.5c-.2.3-.2.6 0 .9.2.3.5.4.9.3l.6-.2.3.3-.1.6c0 .3.1.6.4.8.3.1.7 0 .9-.2l.4-.5c.1 0 .3 0 .4.1l.2.6c.1.3.4.5.7.5h.1c.3 0 .6-.3.6-.6l.1-.6c.1 0 .3-.1.4-.1l.5.4c.3.2.6.2.9 0s.4-.5.3-.9l-.2-.6.3-.3.6.1c.3 0 .6-.1.8-.4.1-.3 0-.7-.2-.9l-.5-.5c0-.1 0-.3.1-.4l.6-.2c.3-.1.5-.4.5-.8s-.4-.9-.7-.9zm-2.6 2l-1.1 1.1c-.1.1-.3.2-.5.1l-1.6-.4c-.2-.1-.3-.2-.4-.4l-.4-1.6c-.1-.2 0-.4.1-.5l1.1-1.1c.1-.1.3-.2.5-.1l1.6.4c.2.1.3.2.4.4l.4 1.6c.1.2 0 .4-.1.5zm12.7-16.9l-.6-.4v-.8l.6-.5c.2-.2.3-.5.3-.7-.1-.3-.3-.5-.5-.6l-.7-.2c-.1-.2-.2-.5-.3-.7l.4-.7c.2-.2.2-.5 0-.8-.1-.2-.4-.4-.7-.4l-.8.1c-.2-.2-.3-.4-.5-.6l.2-.8c.1-.3 0-.6-.3-.7-.2-.2-.5-.2-.8-.1l-.7.3c-.2-.1-.4-.3-.7-.4l-.1-.7c0-.3-.2-.5-.5-.6-.3-.1-.6 0-.8.2l-.5.5c-.2-.1-.5-.1-.7-.1l-.4-.7c-.1-.3-.4-.4-.7-.4-.3 0-.5.2-.7.4l-.3.7c-.3.1-.5.1-.8.2l-.6-.5c-.2-.2-.5-.2-.8-.1s-.4.3-.5.6l-.1.8c-.2.1-.4.3-.6.4l-.7-.3c-.3-.1-.6-.1-.8.1-.2.2-.3.5-.2.8l.2.8c-.2.2-.3.4-.5.6h-.8c-.3 0-.5.1-.7.4-.1.2-.1.6 0 .8l.4.6c-.1.2-.2.5-.2.7l-.7.2c-.3.1-.5.3-.5.6-.1.2.1.5.3.7l.6.4v.8l-.6.5c-.2.2-.3.5-.3.7.1.3.3.5.5.6l.7.2c.1.2.2.5.3.7l-.4.7c-.2.2-.2.5 0 .8.1.2.4.4.7.4l.8-.1c.2.2.3.4.5.6l.4.6c-.1.3 0 .6.3.7s.5.2.8.1l.7-.3c.2.1.4.3.7.4l.1.8c0 .3.2.5.5.6.3.1.6 0 .8-.2l.5-.5c.2 0 .5.1.7.1l.4.7c.1.2.4.4.7.4.3 0 .5-.2.7-.4l.3-.7c.3 0 .5-.1.7-.1l.6.5c.2.2.5.2.8.1.3-.1.4-.3.5-.6l.1-.8c.2-.1.4-.3.6-.4l.7.3c.3.1.6.1.8-.1.2-.2.3-.5.2-.8l-.1-.8c.2-.2.3-.4.5-.6h.8c.3 0 .5-.1.7-.4.1-.2.1-.6 0-.8l-.4-.6c.1-.2.2-.5.2-.7l.7-.2c.3-.1.5-.3.5-.6-.5-.2-.6-.5-.9-.7zm-3.7-1.2l-.9 3.5c-.1.4-.4.8-.9.9l-3.5.9c-.4.1-.9 0-1.2-.3l-2.6-2.6c-.3-.3-.4-.8-.3-1.2l.9-3.5c.1-.4.4-.8.9-.9l3.5-.9c.4-.1.9 0 1.2.3l2.6 2.6c.3.3.4.8.3 1.2z"/></g><g class="st1"><path class="st4" d="M571.5 200h-2.6c-.2-.8-.9-1.4-1.7-1.4h-4.1c-1 0-1.7.8-1.7 1.8s.8 1.8 1.7 1.8h2.3c.2.8.8 1.4 1.7 1.4h4.4c1 0 1.7-.8 1.7-1.8s-.8-1.8-1.7-1.8zm.6 1.8c0 .4-.3.7-.7.7H567c-.4 0-.7-.3-.7-.7 0-.4-.3-.7-.7-.7H563c-.4 0-.7-.3-.7-.7 0-.2.1-.4.2-.5.1-.1.3-.2.5-.2h4.1c.4 0 .7.3.7.7 0 .2.1.4.2.5.1.1.3.2.5.2h3c.3 0 .6.3.6.7z"/><path class="st4" d="M586.2 212.5c.9 0 1.6-.6 1.8-1.4h3.1c1 0 1.8-.8 1.8-1.8s-.8-1.8-1.8-1.8h-5.9c-.9 0-1.6.6-1.8 1.4h-.8v-3c0-.3-.2-.5-.5-.5H580v-3.5c0-.3-.2-.5-.5-.5h-1.9v-3.6c0-.3-.2-.5-.5-.5s-.5.2-.5.5v3.6h-1.9c-.3 0-.5.2-.5.5v3.5h-2.1c-.3 0-.5.2-.5.5v11.7c-.9-1.2-2.3-2.1-3.9-2.3V212c0-.3-.2-.5-.5-.5s-.5.2-.5.5v3.3c-2.8.3-5 2.6-5 5.5v7.3c0 .3.2.5.5.5h30.4c.3 0 .5-.2.5-.5v-15.9c0-.2-.1-.4-.2-.5s-.4.1-.5.1l-9.5 4.3v-3.8h3.3zm-19.9 4h1.2c2 .2 3.7 1.9 3.9 3.9h-8.8c0-2.1 1.6-3.7 3.7-3.9zm-1.7 11.2h-2.3v-6.3h2.3v6.3zm3.3 0h-2.3v-6.3h2.3v6.3zm3.4 0H569v-6.3h2.3v6.3zm7.6-19.3c0-.3.2-.5.5-.5s.5.2.5.5v.5c-.5 0-.7.1-1.1.2v-.7zm-4.1 17.2c0 .3-.2.5-.5.5s-.5-.2-.5-.5v-2c0-.3.2-.5.5-.5s.5.2.5.5v2zm0-5.1c0 .3-.2.5-.5.5s-.5-.2-.5-.5v-2c0-.3.2-.5.5-.5s.5.2.5.5v2zm0-5c0 .3-.2.5-.5.5s-.5-.2-.5-.5v-2c0-.3.2-.5.5-.5s.5.2.5.5v2zm0-5.1c0 .3-.2.5-.5.5s-.5-.2-.5-.5v-2c0-.3.2-.5.5-.5s.5.2.5.5v2zm2.5 15.2c0 .3-.2.5-.5.5s-.5-.2-.5-.5v-2c0-.3.2-.5.5-.5s.5.2.5.5v2zm0-5.1c0 .3-.2.5-.5.5s-.5-.2-.5-.5v-2c0-.3.2-.5.5-.5s.5.2.5.5v2zm0-5c0 .3-.2.5-.5.5s-.5-.2-.5-.5v-2c0-.3.2-.5.5-.5s.5.2.5.5v2zm0-5.1c0 .3-.2.5-.5.5s-.5-.2-.5-.5v-2c0-.3.2-.5.5-.5s.5.2.5.5v2zm2.6 15.2c0 .3-.2.5-.5.5s-.5-.2-.5-.5v-2c0-.3.2-.5.5-.5s.5.2.5.5v2zm0-5.1c0 .3-.2.5-.5.5s-.5-.2-.5-.5v-2c0-.3.2-.5.5-.5s.5.2.5.5v2zm0-5c0 .3-.2.5-.5.5s-.5-.2-.5-.5v-2c0-.3.2-.5.5-.5s.5.2.5.5v2zm11.8-2.1v14.3h-9.2v-10.1l9.2-4.2zm-12-1.9c-.4 0-.7-.4-.7-.8s.3-.7.7-.7h3.9c.4 0 .7-.3.7-.7 0-.4.3-.7.7-.7h5.9c.4 0 .7.3.7.7 0 .4-.3.7-.7.7h-3.4c-.4 0-.7.3-.7.7s-.3.7-.7.7l-6.4.1z"/></g><g class="st1"><path class="st4" d="M262.3 72.7h12.2c.5 0 1-.5 1-1v-8c0-.3-.1-.5-.3-.7-.2-.2-.5-.3-.7-.3h-12.1c-.5 0-1 .5-1 1v8c0 .3.1.5.3.7.1.1.3.3.6.3zm1-8.1h3.7l-3.7 3.7v-3.7zm10.1 6h-4.8l4.8-4.8v4.8zm-7.6 0h-2.1l6.1-6.1h2.1l-6.1 6.1zm43.9-4h1.9c.5 0 1-.5 1-1v-2.1c0-.3-.1-.5-.3-.7-.2-.2-.5-.3-.7-.3h-1.9c-.5 0-1 .5-1 1v2.1c0 .3.1.5.3.7.2.3.4.3.7.3z"/><path class="st4" d="M316.2 88.3V62.5c0-1.9-1.6-3.5-3.5-3.5h-5.4v-9.7c0-.5-.5-1-1-1H278c-.3 0-.5.1-.7.3-.2.2-.3.5-.3.7V59h-1.8v-3.4c0-.3-.1-.5-.3-.7-.2-.2-.5-.3-.7-.3h-12c-.5 0-1 .5-1 1V59c-.5 0-1 .1-1.4.3-.3.1-.5.3-.8.5-.1.1-.2.3-.3.3-.4.4-.7.9-.9 1.4-.1.2-.1.3-.1.5-.1.2-.1.3-.1.5V88c0 .1-.1.2-.1.3v2.9c0 1.8 1.5 3.3 3.3 3.3h52c1.8 0 3.3-1.5 3.3-3.3v-2.9zm-38.1 4.2h-16.8c-.9 0-1.5-.7-1.5-1.5v-1.8h54.6V91c0 .9-.7 1.5-1.5 1.5h-34.8zm-14.8-35.9h10V59h-10v-2.4zm13.6 4.4v13.2h-15.6c-.8 0-1.4-.6-1.5-1.4V62.5c0-.4.1-.7.3-1l.1-.1c.3-.3.7-.5 1-.5l15.7.1zm2.1 0h26.3v26.2h-26.5V61h.2zm35.1 1.5v10.1c0 .9-.7 1.5-1.5 1.5h-5.2V61h5.2c.8 0 1.5.7 1.5 1.5zM279 59.1v-8.7h26.3v8.7H279z"/><path class="st4" d="M280.7 76.2c1 5.4 5.8 9.6 11.5 9.6 5.8 0 10.5-4.1 11.5-9.6.1-.3.1-.7.1-1 .1-.3.1-.7.1-1v-.1c0-6.5-5.2-11.7-11.7-11.7-6.5 0-11.7 5.2-11.7 11.7v.1c0 .3 0 .7.1 1 0 .3.1.7.1 1zm1.8-2.1c0-5.4 4.4-9.7 9.7-9.7 5.4 0 9.7 4.4 9.7 9.7v.1c0 .3 0 .7-.1 1-.1.3-.1.7-.2 1-1 4.4-4.8 7.7-9.5 7.7-4.6 0-8.5-3.3-9.5-7.7-.1-.3-.1-.7-.2-1-.1-.3-.1-.7-.1-1 .2 0 .2 0 .2-.1z"/><path class="st4" d="M283.9 75.2c.1.3.1.7.2 1 .9 3.6 4.2 6.2 8 6.2s7.1-2.6 8.1-6.2c.1-.3.1-.7.2-1 .1-.3.1-.7.1-1v-.1c0-4.6-3.7-8.4-8.4-8.4-4.6 0-8.4 3.7-8.4 8.4v.1c.2.4.2.7.2 1zm1.9-1.1c0-3.6 2.9-6.5 6.5-6.5.2 0 .3.1.5.1.3.1.5.5.5.9 0 .5-.5 1-1 1-2.5 0-4.5 2-4.5 4.5v.1c-.1.5-.5.9-1 .9-.4 0-.7-.3-.9-.6-.1-.1-.1-.2-.1-.3v-.1zm9.5 5.7c-.1.1-.3.1-.5.1-.3 0-.7-.2-.9-.5-.3-.5-.1-1.1.4-1.4.7-.4 1.3-1 1.7-1.6.1-.1.1-.1.1-.2.3-.3.8-.4 1.2-.1.1.1.1.1.2.1.2.2.3.5.3.7 0 .2-.1.3-.1.5-.5 1-1.3 1.8-2.4 2.4zm7.7-27.9h-21.6c-.5 0-1 .5-1 1v3.9c0 .5.5 1 1 1H303c.5 0 1-.5 1-1v-3.9c-.1-.6-.5-1-1-1zm-1 3.9h-19.6v-1.9H302v1.9z"/></g><path class="st3" d="M72 71.5l215.5 1m-216-1l144 145m0 0l72 144m0 0h-216m0 0l144-144m72-144l-72 144m72-144l144 72m-144-72l216-74m0 0l-72 146m-216 72l216-72m0 0v144m0 0l-144 72m144-72l72 72m0 0h144m0 0l-72-144m0 0l-72 144m72-144l-144-72m72-146l153 74m0 0l-81 144m81-144l135 144m0 0v-144m-135 0h135m-144 288l144-144m-720 144v-288m0 288l-135-72m135-216l-135 216m351-216l-144-144m504 144l72-144m0 0l72 144m0 0l72-189m-585 477l153 144m0 0l72-144m0 0l72 144m0 0l72-144m0 0l216 153m-72-297l72 297m-288-297h216m0 0l144-144m-144 0h144m-864 288l-143 72m143-72l72 144m0 0l144-144m0 0l144-216m0 0l216-72m153 144l207 72"/><g class="st1"><circle class="st2" cx="71.5" cy="71.5" r="87.7"/><path class="st4" d="M71.5-13.7c47 0 85.2 38.2 85.2 85.2s-38.2 85.2-85.2 85.2-85.2-38.2-85.2-85.2 38.2-85.2 85.2-85.2m0-5c-49.8 0-90.2 40.4-90.2 90.2s40.4 90.2 90.2 90.2 90.2-40.4 90.2-90.2-40.4-90.2-90.2-90.2z"/></g><g class="st1"><circle class="st2" cx="791.5" cy="215.5" r="87.7"/><path class="st4" d="M791.5 130.3c47 0 85.2 38.2 85.2 85.2s-38.2 85.2-85.2 85.2-85.2-38.2-85.2-85.2 38.2-85.2 85.2-85.2m0-5c-49.8 0-90.2 40.4-90.2 90.2s40.4 90.2 90.2 90.2 90.2-40.4 90.2-90.2-40.4-90.2-90.2-90.2z"/></g><g class="st1"><circle class="st2" cx="287.5" cy="72.5" r="55.7"/><path class="st4" d="M287.5 19.3c29.3 0 53.2 23.9 53.2 53.2s-23.9 53.2-53.2 53.2-53.2-23.9-53.2-53.2 23.9-53.2 53.2-53.2m0-5c-32.2 0-58.2 26.1-58.2 58.2s26.1 58.2 58.2 58.2 58.2-26.1 58.2-58.2-26-58.2-58.2-58.2z"/></g><g class="st1"><circle class="st2" cx="648.5" cy="360.5" r="55.7"/><path class="st4" d="M648.5 307.3c29.3 0 53.2 23.9 53.2 53.2s-23.9 53.2-53.2 53.2-53.2-23.9-53.2-53.2 23.9-53.2 53.2-53.2m0-5c-32.2 0-58.2 26.1-58.2 58.2s26.1 58.2 58.2 58.2 58.2-26.1 58.2-58.2-26-58.2-58.2-58.2z"/></g><g class="st1"><path class="st2" d="M576.4 249.9c-18.5 0-33.5-15-33.5-33.5s15-33.5 33.5-33.5 33.5 15 33.5 33.5-15 33.5-33.5 33.5z"/><path class="st4" d="M576.4 185.4c17.1 0 31 13.9 31 31s-13.9 31-31 31-31-13.9-31-31c0-17 13.9-31 31-31m0-5c-19.9 0-36 16.1-36 36s16.1 36 36 36 36-16.1 36-36-16.1-36-36-36z"/></g><g class="st1"><path class="st2" d="M72.5 393.9c-18.5 0-33.5-15-33.5-33.5s15-33.5 33.5-33.5 33.5 15 33.5 33.5-15.1 33.5-33.5 33.5z"/><path class="st4" d="M72.5 329.4c17.1 0 31 13.9 31 31s-13.9 31-31 31-31-13.9-31-31 13.9-31 31-31m0-5c-19.9 0-36 16.1-36 36s16.1 36 36 36 36-16.1 36-36-16.1-36-36-36z"/></g><g class="st1"><path class="st2" d="M648.5 105.9c-18.5 0-33.5-15-33.5-33.5s15-33.5 33.5-33.5 33.5 15 33.5 33.5-15.1 33.5-33.5 33.5z"/><path class="st4" d="M648.5 41.4c17.1 0 31 13.9 31 31s-13.9 31-31 31-31-13.9-31-31 13.9-31 31-31m0-5c-19.9 0-36 16.1-36 36s16.1 36 36 36 36-16.1 36-36-16.1-36-36-36z"/></g><g class="st1"><circle class="st2" cx="214.5" cy="217.5" r="22.9"/><path class="st4" d="M214.5 197.1c11.2 0 20.4 9.1 20.4 20.4s-9.1 20.4-20.4 20.4-20.4-9.1-20.4-20.4 9.2-20.4 20.4-20.4m0-5c-14 0-25.4 11.4-25.4 25.4s11.4 25.4 25.4 25.4 25.4-11.4 25.4-25.4-11.4-25.4-25.4-25.4z"/></g><g class="st1"><circle class="st2" cx="505.5" cy="-.5" r="22.9"/><path class="st4" d="M505.5-20.9c11.2 0 20.4 9.1 20.4 20.4s-9.1 20.4-20.4 20.4-20.4-9.1-20.4-20.4 9.2-20.4 20.4-20.4m0-5c-14 0-25.4 11.4-25.4 25.4s11.4 25.4 25.4 25.4 25.4-11.4 25.4-25.4-11.4-25.4-25.4-25.4z"/></g><g class="st1"><circle class="st2" cx="503.5" cy="360.5" r="22.9"/><path class="st4" d="M503.5 340.1c11.2 0 20.4 9.1 20.4 20.4s-9.1 20.4-20.4 20.4-20.4-9.1-20.4-20.4 9.2-20.4 20.4-20.4m0-5c-14 0-25.4 11.4-25.4 25.4s11.4 25.4 25.4 25.4 25.4-11.4 25.4-25.4-11.4-25.4-25.4-25.4z"/></g><g class="st1"><circle class="st2" cx="790.5" cy="73.5" r="22.9"/><path class="st4" d="M790.5 53.1c11.2 0 20.4 9.1 20.4 20.4s-9.1 20.4-20.4 20.4-20.4-9.1-20.4-20.4 9.2-20.4 20.4-20.4m0-5c-14 0-25.4 11.4-25.4 25.4s11.4 25.4 25.4 25.4 25.4-11.4 25.4-25.4-11.4-25.4-25.4-25.4z"/></g><g class="st1"><path class="st2" d="M430.1 321.1c-18.8 0-34-15.3-34-34 0-18.8 15.3-34 34-34 18.8 0 34 15.3 34 34s-15.2 34-34 34z"/><path class="st4" d="M430.1 255.6c17.4 0 31.5 14.1 31.5 31.5s-14.1 31.5-31.5 31.5-31.5-14.1-31.5-31.5 14.1-31.5 31.5-31.5m0-5c-20.2 0-36.5 16.3-36.5 36.5s16.3 36.5 36.5 36.5 36.5-16.3 36.5-36.5-16.3-36.5-36.5-36.5z"/></g><g class="st1"><circle class="st2" cx="286.5" cy="359.5" r="87.9"/><path class="st4" d="M286.5 274.1c47.1 0 85.4 38.3 85.4 85.4s-38.3 85.4-85.4 85.4-85.4-38.3-85.4-85.4 38.3-85.4 85.4-85.4m0-5c-49.9 0-90.4 40.5-90.4 90.4s40.5 90.4 90.4 90.4 90.4-40.5 90.4-90.4-40.5-90.4-90.4-90.4z"/></g><g class="st1"><circle class="st2" cx="430.5" cy="145.5" r="43.5"/><path class="st4" d="M430.5 104.5c22.6 0 41 18.4 41 41s-18.4 41-41 41-41-18.4-41-41 18.4-41 41-41m0-5c-25.4 0-46 20.6-46 46s20.6 46 46 46 46-20.6 46-46-20.6-46-46-46z"/></g><path class="st5" d="M453 296h-1.9v-2c0-.5-.4-.8-.8-.8h-1.5V281h1.3c.5 0 .8-.4.8-.8V277c0-.3-.2-.6-.5-.8l-19.2-7.4c-.2-.1-.4-.1-.6 0l-19.2 7.4c-.3.1-.5.4-.5.8v3.2c0 .5.4.8.8.8h1.8v12.2h-1.8c-.5 0-.8.4-.8.8v2H409c-.5 0-.8.4-.8.8v2.9c0 .5.4.8.8.8h44c.5 0 .8-.4.8-.8v-2.9c0-.4-.3-.8-.8-.8zm-24.3-15.1v12.2h-3v-12.2h3zm-7.6 0v12.2h-3v-12.2h3zm12.3 12.2v-12.2h3v12.2h-3zm7.6 0v-12.2h3v12.2h-3z"/><g class="st1"><path class="st4" d="M319.9 390.2c-.5-.8-1.3-1.3-2.2-1.4-.9-.2-1.8 0-2.6.6-21.1 14.8-50.5 9.4-65.6-12-15-21.4-10.1-50.9 11-65.7 1.5-1.1 1.9-3.1.9-4.7l-5-7.6c-1-1.6-3.2-2-4.8-1-1.6 1-2 3.2-1 4.8l3.2 4.9c-21.9 17.5-27 49.7-10.5 73.3 9.6 13.7 24.7 21.7 39.5 23.1v7.7h-10.2c-1.9 0-3.4 1.2-3.4 3.1 0 1.9 1.5 3.1 3.4 3.1h28.9c1.9 0 3.4-1.2 3.4-3.1 0-1.9-1.5-3.1-3.4-3.1h-11.3v-7.5c8.6-.3 17.7-2.8 25.6-7.7l2.6 3.6c1.1 1.6 3.3 1.9 4.8.9 1.6-1.1 2-3.2.9-4.8l-4.2-6.5z"/><path class="st4" d="M324.5 324.5c-6.4-9.1-15.9-15.4-26.6-17.7h-.2c-3-.6-6-1-9.1-1-8.8 0-17.4 2.6-24.7 7.7-.1 0-.1.1-.1.1-.1.1-.3.2-.4.2-.2.2-.4.3-.7.5-9.8 7.2-15.7 17.7-17.4 28.9-.1.3-.1.5-.1.8-1.3 10.4 1 21.3 7.5 30.5 6.3 9 15.7 15.3 26.3 17.6h.2c3 .7 6.2 1 9.4 1 9 0 17.6-2.7 25-7.9 10.2-7.1 16.5-17.9 18.2-29.4.1-.2.1-.4.1-.6 1.4-10.3-.9-21.3-7.4-30.7zm-25.7-10.4c7 2 13.2 6 18 11.6l-9.7 6.8c-3.8-5-8-9.2-12.3-12.6 1.4-1.9 2.8-3.8 4-5.8zm2.8 48.3c-.1 0-.1 0 0 0-.1 0-.1 0 0 0l-8.2-11.9 11.9-8.4.1-.1v.1h-.4c3 4.8 5.1 9.7 6.3 14.5-3.7 1.6-6.6 3.5-10.1 5.7l.4.1zm-17.8-13.6l-12.3 8.5c-3-4.8-5.3-9.7-6.8-14.5 3.6-1.6 7.3-3.6 10.8-5.9l8.3 11.9zm-2.7-15.9c3.3-2.5 6.3-5.1 9-7.9 3.9 3 7.8 6.9 11.3 11.4l-12 8.4-8.3-11.9zm6.5 21.5l8.3 11.9c-3.4 2.5-6.4 5.2-9.2 8-3.9-3-7.8-6.9-11.3-11.4l12.2-8.5zm17.7-12.4zm-16.7-29.3c.9 0 1.9 0 2.8.1-.7 1-1.5 2.1-2.4 3.2-1.9-1.1-3.8-2.1-5.8-2.9 1.8-.3 3.6-.4 5.4-.4zm-15.5 5.1c3.4 0 7.2 1.2 11.1 3.3-2.2 2.1-4.5 4.2-7.1 6.1l-6.4-9.2c.8-.1 1.6-.2 2.4-.2zm-8 4l6.5 9.4c-2.8 1.8-5.7 3.4-8.5 4.7-.1-.4-.1-.8-.2-1.2-.6-5.4.2-9.9 2.2-12.9zm-9.3 10.9c0 .9.1 1.8.2 2.8.1 1 .3 2.1.5 3.1-1.1.4-2.3.8-3.4 1.1.7-2.4 1.6-4.8 2.7-7zm.8 35c-3.7-6.5-5.2-13.6-4.7-20.7 2.1-.4 4.2-1 6.4-1.7 1.7 5.3 4.3 10.7 7.6 15.9l-9.3 6.5zm21.6 17.2c-6.9-2-13.1-6-17.8-11.6l9.3-6.5c3.8 5 8 9.2 12.3 12.6-1.3 1.9-2.6 3.7-3.8 5.5zm10.4 1.5c-1 0-2 0-3-.1.7-1 1.4-1.9 2.2-2.9 1.8 1.1 3.6 2 5.4 2.7-1.5.2-3 .3-4.6.3zm15.1-4.9c-3.4 0-7.2-1.2-11.1-3.3 2.2-2.2 4.6-4.2 7.2-6.2l6.4 9.2c-.8.2-1.6.3-2.5.3zm8.2-4.2l-6.4-9.3c2.7-1.7 5.5-3.3 8.3-4.6.1.4.1.8.2 1.2.5 5.3-.2 9.8-2.1 12.7zm9.1-10.1c-.1-2-.3-4.2-.7-6.4 1.3-.4 2.5-.8 3.8-1.2-.8 2.6-1.8 5.2-3.1 7.6zm3.8-14.9c-2.5.4-3.7 1-6.1 1.8-2.5-5.2-4.3-10.6-7.6-15.9l9.7-6.8c3.2 5.7 4.5 11.9 4.5 18.1-.1.9-.5 1.8-.5 2.8z"/></g><g class="st1"><path class="st4" d="M228.7 211.6c-.1-.2-.3-.4-.5-.4h-.8c-5.3 0-8.8 1.7-10.5 2.8-3.5-3.6-6.5-4.6-6.6-4.6-.2-.1-.3 0-.4.1-5.1 3-10.2 8.4-10.4 8.6-.1.1-.2.3-.2.5s.2.3.3.4c.1 0 5.7 2.8 9.5 9.9.1.2.3.3.4.3h.1c.2 0 .3-.1.4-.2 4.7-5.4 10.9-7.7 11.3-7.8h.1s.1 0 .1-.1l.1-.1v-.1c2.5-5.5 6.8-8.5 6.8-8.6.3-.2.3-.4.3-.7zm-8.4 8.7c-.1 0-.1.1-.2.1-1.9.8-6.5 3-10.5 7.2-3.2-5.5-7.3-8.3-9-9.3 1.4-1.4 5.5-5.4 9.4-7.8.7.3 3.1 1.4 5.8 4.1l.4.4c1 1 2.1 2.3 3.1 3.8.4.6.7 1 1 1.5z"/><path class="st4" d="M203.7 217.8c-.3-.2-.6-.1-.8.2s-.1.6.2.8c1 .7 1.9 1.4 2.7 2.2.1.1.3.2.4.2.2 0 .3-.1.4-.2.2-.2.2-.6 0-.8-.9-1-1.9-1.7-2.9-2.4zm.9-.7c1.1.7 2.1 1.4 2.9 2.2.1.1.3.1.4.1.2 0 .3-.1.4-.2.2-.2.2-.6 0-.8-.9-.8-1.9-1.6-3-2.3-.3-.2-.6-.1-.8.2-.2.3-.1.7.1.8zm1.8-1.3c1 .6 1.9 1.3 2.8 2 .1.1.2.1.3.1.2 0 .3-.1.4-.2.2-.2.2-.6-.1-.8-.9-.8-1.9-1.5-2.9-2.1-.3-.2-.6-.1-.8.2 0 .2.1.6.3.8zm5.2 2.7c-.2-.2-.5-.2-.7-.1-1.1.7-2.3 1.7-3.7 3.4-.2.2-.2.5 0 .7.2.2.3.3.4.5.6.6 1.1 1.2 1.7 2.3.1.2.2.3.4.3h.1c.1 0 .3-.1.4-.2 1.6-1.4 2.7-2.2 3.7-2.9.3-.2.3-.5.2-.8-.7-1.3-1.3-2.1-2.5-3.2zm-1.5 5.7c-.5-.8-1-1.4-1.5-1.9l-.1-.1c1-1.2 1.9-2 2.8-2.6.8.8 1.3 1.4 1.8 2.3-1 .6-1.9 1.3-3 2.3zm-1.3-10.8c-.3-.2-.6-.1-.8.2-.2.3-.1.6.2.8 3 1.7 5.5 4.1 7.2 6.9.1.2.3.3.5.3.1 0 .2 0 .3-.1.3-.2.3-.5.2-.8-1.8-2.9-4.4-5.5-7.6-7.3zm1.7-1.4c-.3-.2-.6 0-.8.2-.2.3 0 .6.2.8 3.2 1.7 5.7 4 7.4 6.9.1.2.3.3.5.3.1 0 .2 0 .3-.1.3-.2.3-.5.2-.8-.4-.8-.9-1.5-1.5-2.1-.5-.6-1-1.2-1.5-1.7-1.4-1.3-3-2.5-4.8-3.5z"/></g><g class="st1"><path class="st4" d="M840.4 205.6h-14.2v-34.9c0-1.8-2.1-4-3.9-4h-74c-1.8 0-3.8 2.2-3.8 4v52.2s-13.2 10.7-14.7 12c-.5.4-.9 1.2-.9 2v4.2c0 1.8 1.7 3.5 3.5 3.5H808V263c0 1.3.7 2.4 2 2.4h30.8c1.3 0 2.2-1 2.2-2.4v-54.1c.1-1.4-1.2-3.3-2.6-3.3zM808 239.4h-72.6c-.7 0-1.7-.9-1.7-2 0-1 .8-1.9 1.5-1.9h72.7l.1 3.9zm.1-30.6v11.1H751v-46.7h68.8v32.4h-8.7c-1.4 0-3 1.9-3 3.2zm20.5 51.7c-.5 1-1.6 1.7-2.8 1.7s-2.3-.7-2.8-1.7c-.2-.4-.4-.9-.4-1.5 0-.7.2-1.3.5-1.8.6-.8 1.5-1.4 2.6-1.4s2.1.6 2.6 1.4c.3.5.5 1.1.5 1.8.2.6 0 1.1-.2 1.5zm9.3-8.2h-24.6v-41.5h24.6v41.5z"/><path class="st4" d="M784.4 176.1c-1-.7-2.4-.5-3.2.5l-26.4 35.7c-.7 1-.5 2.4.5 3.2.4.3.9.4 1.3.4.7 0 1.4-.3 1.8-.9l26.4-35.7c.8-1 .6-2.4-.4-3.2zm-29.1 23.8c.4.3.9.4 1.3.4.7 0 1.4-.3 1.8-.9l15.5-20.5c.7-1 .5-2.4-.5-3.2s-2.4-.5-3.2.5l-15.5 20.5c-.7 1.1-.5 2.5.6 3.2zm60.9 27.3c.4.3.9.4 1.3.4.7 0 1.4-.3 1.8-.9l6.5-8.8c.7-1 .5-2.4-.5-3.2-1-.7-2.4-.5-3.2.5l-6.5 8.8c-.6 1-.4 2.4.6 3.2zm1.3 12.5c.4.3.9.4 1.3.4.7 0 1.4-.3 1.8-.9l13.9-19.2c.7-1 .5-2.4-.5-3.2-1-.7-2.4-.5-3.2.5l-13.9 19.2c-.6 1-.4 2.5.6 3.2z"/></g><g class="st1"><path class="st4" d="M672.3 359.1c0-13.4-10.9-24.3-24.3-24.3s-24.2 11-24.2 24.3c0 8.1 4.1 15.7 10.8 20.2V392c0 1.5 1.2 2.7 2.7 2.7h21.5c1.5 0 2.7-1.2 2.7-2.7v-12.7c6.7-4.4 10.8-12 10.8-20.2zm-43.2 0c0-10.4 8.5-18.9 18.9-18.9s18.9 8.5 18.9 18.9c0 6.7-3.6 13-9.5 16.4-.8.5-1.3 1.4-1.3 2.4v1.7h-5.4v-8.8c.4 0 .7.1 1.1.1 3 0 5.8-1.1 7.9-3.3 2.8-2.8 3.9-7 2.9-10.8-.2-.9-1-1.6-1.9-1.9-1-.2-1.9-.4-2.9-.4-3 0-5.8 1.1-7.9 3.3-.8.8-1.5 1.7-2 2.6-.5-.8-1.1-1.6-1.7-2.3-2-2-4.7-3.2-7.7-3.2-1 0-1.9.2-2.8.4-.9.2-1.6 1-1.9 1.9-1 3.8.1 7.8 2.8 10.5 2 2 4.7 3.2 7.7 3.2.3 0 .7 0 1-.1v8.8H640v-1.7c0-1-.5-1.9-1.3-2.4-5.9-3.4-9.6-9.6-9.6-16.4zm22.9 6.4c.1-1.5.7-2.9 1.7-3.9 1.1-1.1 2.5-1.6 3.9-1.7-.1 1.5-.7 2.9-1.7 3.9-1 1.1-2.4 1.6-3.9 1.7zm-8-.1c-1.3-.1-2.6-.7-3.5-1.6-1-1-1.5-2.2-1.6-3.5 1.3.1 2.6.7 3.5 1.6.9 1 1.5 2.2 1.6 3.5zm-4 24V385h16.1v4.4H640zm-15.1-50.1c.5.6 1.2.9 2 .9.7 0 1.3-.2 1.8-.7 1.1-1 1.2-2.7.2-3.8l-3.5-3.9c-1-1.1-2.7-1.2-3.8-.2-1.1 1-1.2 2.7-.2 3.8l3.5 3.9zm44.2.9c.7 0 1.5-.3 2-.9l3.4-3.9c1-1.1.9-2.9-.2-3.8-1.1-1-2.9-.9-3.8.2l-3.4 3.9c-1 1.1-.9 2.9.2 3.8.5.6 1.2.7 1.8.7zm14.7 16h-5.3c-1.5 0-2.7 1.2-2.7 2.7s1.2 2.7 2.7 2.7h5.3c1.5 0 2.7-1.2 2.7-2.7s-1.3-2.7-2.7-2.7zm-66.2 0h-5.3c-1.5 0-2.7 1.2-2.7 2.7s1.2 2.7 2.7 2.7h5.3c1.5 0 2.7-1.2 2.7-2.7s-1.3-2.7-2.7-2.7zm30.4-24.1c1.5 0 2.7-1.2 2.7-2.7v-5.5c0-1.5-1.1-2.7-2.7-2.7-1.5 0-2.7 1.2-2.7 2.7v5.5c.1 1.4 1.2 2.7 2.7 2.7z"/><path class="st4" d="M624.9 378.4l-3.4 3.8c-1 1.1-.9 2.8.2 3.8.5.5 1.1.7 1.8.7s1.5-.3 2-.9l3.4-3.8c1-1.1.9-2.8-.2-3.8s-2.8-.9-3.8.2zm46.2 0c-1-1.1-2.7-1.2-3.8-.2-1.1 1-1.2 2.7-.2 3.8l3.4 3.8c.6.6 1.3.9 2 .9s1.3-.2 1.8-.7c1.1-1 1.2-2.7.2-3.8l-3.4-3.8z"/></g><g class="st1"><path class="st4" d="M461.5 143.5h-8.9c-.8 0-1.4.6-1.4 1.4s.6 1.4 1.4 1.4h8.9c.8 0 1.4-.6 1.4-1.4 0-.8-.6-1.4-1.4-1.4zm-13.7-8.7c.3 0 .7-.1 1-.4l6.3-6.3c.5-.5.5-1.5 0-2s-1.5-.5-2 0l-6.3 6.3c-.5.5-.5 1.5 0 2 .3.3.7.4 1 .4zm1 20.6c-.5-.5-1.5-.5-2 0s-.5 1.5 0 2l6.3 6.3c.3.3.7.4 1 .4s.7-.1 1-.4c.5-.5.5-1.5 0-2l-6.3-6.3zm-11.3-34.5h-.3c-.3 0-.5 0-.7.1-.8.2-1.5.7-2.3 1.3L412.8 135h-8.2c-.5 0-1.1.3-1.3.9l-.7 1.5c-2.2 5-2.2 10.6 0 15.6l.7 1.5c.2.5.7.9 1.3.9h8.2l21.5 12.7c.7.7 1.4 1.1 2.3 1.3.2.1.4.1.5.1h.4c5.8 0 8.8-12.2 8.8-24.2 0-12.1-3-24.4-8.8-24.4zm-6 24.1c0-2.4.1-4.6.3-6.7 2.6 1.3 4.2 3.8 4.2 6.7s-1.7 5.5-4.2 6.7c-.1-2-.3-4.3-.3-6.7zm-2.8 0c0 6.6.9 13.1 2.6 17.8l-17.2-10.1c-2.5-4.8-2.5-10.5 0-15.2l17.2-10.1c-1.7 4.5-2.6 11.1-2.6 17.6zm-23.5 6.7c-1.9-4.2-1.9-9.1 0-13.3l.3-.7h5.4c-1.9 4.7-1.9 9.9 0 14.6h-5.4l-.3-.6zm32.3 14.7l-1.4-.8c-1.5-1.6-3-5.4-3.8-10.9 4-1.5 6.7-5.4 6.7-9.6 0-4.3-2.6-8.1-6.7-9.6.9-5.5 2.4-9.3 3.8-10.9l1.4-.8h.1c2.5 0 6 8.3 6 21.3-.1 12.9-3.6 21.3-6.1 21.3z"/></g><g class="st1"><path class="st4" d="M97.1 35.4c0-15.4-12.5-28-28-28-15.4 0-28 12.5-28 28 0 24.3 28 56.6 28 56.6s28-31.9 28-56.6zm-42.4 1c0-8.1 6.6-14.7 14.7-14.7S84 28.3 84 36.4 77.4 51 69.3 51s-14.6-6.5-14.6-14.6z"/><path class="st4" d="M110.3 117.2l-8.5-42.6c-.4-1.8-1.9-2.3-3.7-2.3h-6.4c-.9 1.2-4.1 6.2-4.7 7.5h8l1 6.2H83.5s-5.5 6.4-7.2 8.5l.5 5.2H60.6l.6-6c-1.7-2.1-4-4-6.6-7.7H42.1l1-6.2h8.5c-.7-1.2-3.9-6.2-4.7-7.5H40c-1.8 0-3.3.5-3.7 2.3l-8.6 43.2c-.2 1.1.1 2.8.8 3.7.7.9 1.8 1.9 2.9 1.9h75.2c2.1 0 3.8-2.4 3.8-4.5 0-.3-.1-1.4-.1-1.7zm-58.9-2.5H36l1.6-7.5h14.7l-.9 7.5zm1.8-14.9h-14l1.4-7.5H54l-.8 7.5zm5.8 14.9l.9-7.5h17.9l.9 7.5H59zm24.8-22.4h13.7l1.4 7.5H84.5l-.7-7.5zm2.5 22.4l-.9-7.5h15l1.6 7.5H86.3z"/></g><path class="st5" d="M801.2 64.7H781c-.7 0-1.2.5-1.2 1.2v14.5c0 .7.5 1.2 1.2 1.2h20.3c.7 0 1.2-.5 1.2-1.2V65.9c-.1-.7-.7-1.2-1.3-1.2zm-11.8 5.9c0 1.4-1.2 2.6-2.6 2.6-1.4 0-2.6-1.2-2.6-2.6 0-1.4 1.2-2.6 2.6-2.6 1.4 0 2.6 1.2 2.6 2.6zm10.5 8.5h-17.8v-4.6l3.5 2.2c.6.4 1.4.3 1.9-.1l6.6-5.2c.5-.4 1.3-.5 1.9-.1l3.8 2.3.1 5.5z"/><g class="st1"><path class="st4" d="M646.4 75.9l5-7.1c.2-.3.1-.6-.1-.8-.3-.2-.6-.1-.8.1l-5 7.1c-.7-.2-1.5.1-1.9.7l-2.4 3.3-3.1-3.8c-.7-1.2-1.8-2.2-3.2-2.7 2.1-.9 3.6-2.9 3.6-5.4 0-3.2-2.6-5.8-5.8-5.8s-5.8 2.6-5.8 5.8c0 2.4 1.5 4.5 3.6 5.4-2.4.9-4.1 3.2-4.1 5.8v7.6c0 .3.3.6.6.6h11.2c.3 0 .6-.3.6-.6v-3.8l.8 1.1c.4.4.9.7 1.4.7.5 0 1.1-.3 1.4-.8l3.8-5.3c.7-.6.6-1.5.2-2.1z"/><path class="st4" d="M669.4 59.1h-26.5c-.3 0-.6.3-.6.6v15.6c0 .1.1.1.2 0 .5-.7 1.2-1.1 2-1.3.2 0 .4-.1.5-.3l4.4-6.2c.3-.5.9-.8 1.5-.8.4 0 .7.1 1.1.3.8.6 1 1.7.4 2.5l-4.3 6.2c-.1.2-.2.4-.1.6.2.8 0 1.7-.5 2.4l-.7 1.1c0 .1 0 .2.1.2h22.7c.3 0 .6-.3.6-.6V59.7c-.2-.3-.5-.6-.8-.6z"/></g><g class="st1"><path class="st4" d="M93.7 356.7c0-6.2-5.1-11.3-11.3-11.3-4.8 0-8.9 3.1-10.6 7.3-1.7-4.3-5.8-7.3-10.6-7.3-6.2 0-11.3 5.1-11.3 11.3v14.4c0 .2.1.4.2.5.1.1.3.2.6.2l15.4-1.7c.3 0 .5.1.7.3 1.1 1.7 2.9 2.7 4.9 2.7s3.8-1 4.9-2.7c.1-.2.4-.3.7-.3l15.4 1.7c.2 0 .4 0 .6-.2.1-.1.2-.3.2-.5V368l.2-11.3zM66 367.2c-.5-2.1-2.4-3.5-4.9-3.5s-4.2 1.7-4.7 3.5h-1.9c.4-2.6 3.2-5.2 6.6-5.2 3.5 0 6.3 2.1 6.9 5.2h-2zm3.6 0c-.6-3.9-4-6.7-8.4-6.7-2.1 0-4.1.8-5.7 2.3-1.4 1.3-2.2 2.9-2.4 4.5h-1.7c.4-5.1 4.6-9.1 9.8-9.1s9.4 4 9.8 9.1l-1.4-.1zm1.5-4.8c-1.9-3.4-5.6-5.7-9.9-5.7s-7.9 2.3-9.8 5.7v-5.7c0-5.4 4.4-9.9 9.9-9.9s9.8 4.5 9.8 9.9v5.7zm16 4.8c-.5-2.2-2.4-3.6-4.9-3.6s-4.3 1.8-4.7 3.6h-1.9c.3-2.6 3.1-5.3 6.6-5.3 3.6 0 6.4 2.2 6.9 5.3h-2zm3.6 0c-.5-4-3.9-6.8-8.4-6.8-2.1 0-4.1.8-5.7 2.3-1.4 1.3-2.3 3-2.4 4.6h-1.6c.2-5.1 4.5-9.1 9.8-9.1 5.2 0 9.4 4 9.8 9.1h-1.5zm1.6-4.8c-1.9-3.4-5.6-5.7-9.9-5.7-4.3 0-7.9 2.2-9.9 5.5v-5.4c0-5.4 4.4-9.9 9.9-9.9s9.9 4.4 9.9 9.9v5.6z"/></g><g class="st1"><path class="st4" d="M515.8 355.6l-8.1-2.9c-.4-.1-.9-.1-1.3.1s-.6.6-.7 1.1l-.8 6.7c-.2 0-.3-.1-.5-.1-1.9-.3-3.6.8-3.8 2.4-.2 1.6 1.1 3.1 3 3.4 1.9.3 3.6-.8 3.8-2.4l1-7.7 5.2 1.9-.8 6c-.2-.1-.4-.1-.5-.1-1.9-.3-3.6.8-3.8 2.4-.2 1.6 1.1 3.1 3 3.4 1.8.2 3.5-.6 3.8-2.2 0-.1 1.4-10.3 1.4-10.3.2-.9-.2-1.5-.9-1.7zm-20.4-3.1c-1.8.5-3 2.1-2.6 3.6l1.9 8.6c-.8-.1-1.6-.3-2.1-.8s-.5-1.3-.2-2.5c.2-.8-.3-1.6-1.1-1.8-.8-.2-1.6.3-1.8 1.1-.6 2.2-.3 4 .8 5.3 1.4 1.6 3.6 1.8 5 1.8.7 0 1.2-.1 1.3-.1.4-.1.8-.3 1-.6.2-.4.3-.8.2-1.2l-1.7-7.6c.2 0 .4 0 .6-.1 1.8-.5 3-2.1 2.6-3.6-.2-1.7-2-2.6-3.9-2.1z"/></g><g class="st1"><path class="st4" d="M500.3 6.2c.3-.1.4-.4.4-.7v-.7c.2-.1.4-.3.6-.5l.7.2c.3.1.6 0 .8-.3.2-.2.2-.5.1-.8l-.3-.7c.1-.2.2-.5.3-.7l.7-.1c.3-.1.5-.3.6-.6s0-.6-.3-.8l-.6-.4v-.8l.6-.4c.2-.2.3-.5.3-.8-.1-.3-.3-.5-.6-.6l-.7-.1c-.1-.2-.2-.5-.3-.7l.3-.7c.1-.3.1-.6-.1-.8-.2-.2-.5-.3-.8-.3l-.7.2c-.2-.2-.4-.3-.6-.5v-.7c0-.3-.2-.6-.4-.7-.3-.1-.6-.1-.8.1l-.6.5c-.2-.1-.5-.1-.8-.2l-.3-.7c-.1-.3-.4-.4-.7-.4-.3 0-.6.2-.7.4l-.1 1.1c-.3 0-.5.1-.8.2l-.5-.5c-.2-.2-.5-.2-.8-.1-.3.1-.4.4-.4.7v.7c-.2.1-.4.3-.6.5l-.7-.2c-.3-.1-.6 0-.8.3-.2.2-.2.5-.1.8l.4.6c-.1.2-.2.5-.3.7l-.7.1c-.3.1-.5.3-.6.6s0 .6.3.8l.6.4v.8l-.6.4c-.2.2-.3.5-.3.8.1.3.3.5.6.6l.7.1c.1.2.2.5.3.7l-.3.7c-.1.3-.1.6.1.8.2.2.5.3.8.3l.7-.2c.2.2.4.3.6.5v.7c0 .3.2.6.4.7.3.1.6.1.8-.1l.6-.5c.2.1.5.1.8.2l.3.7c.1.3.4.4.7.4.3 0 .6-.2.7-.4l.3-.7c.3 0 .5-.1.8-.2l.6.5c-.2-.1.1 0 .4-.2zm-2-3.6h-2.2c-.3 0-.5-.1-.7-.4L494.3.3c-.1-.2-.1-.5 0-.8l1.1-1.9c.1-.2.4-.4.7-.4h2.2c.3 0 .5.1.7.4l1.1 1.9c.1.2.1.5 0 .8L499 2.2c-.2.2-.4.4-.7.4z"/><path class="st4" d="M509.1 8l-.6-.1c0-.1-.1-.3-.1-.4l.4-.5c.2-.3.2-.6 0-.9-.2-.3-.5-.4-.9-.3l-.6.2-.3-.3.1-.6c0-.3-.1-.6-.4-.8-.3-.1-.7 0-.9.2l-.4.5c-.1 0-.3 0-.4-.1l-.2-.6c-.2-.1-.5-.3-.8-.3-.3 0-.6.3-.7.6l-.1.6c-.1 0-.3.1-.4.2l-.5-.3c-.3-.2-.6-.2-.9 0s-.4.5-.3.9l.2.6-.3.3-.6-.1c-.3 0-.6.1-.8.4-.1.3 0 .7.2.9l.5.4c0 .1 0 .3-.1.4l-.6.2c-.3.1-.4.4-.4.8 0 .3.3.6.6.6l.6.1c0 .1.1.3.2.4l-.4.5c-.2.3-.2.6 0 .9.2.3.5.4.9.3l.6-.2.3.3-.1.6c0 .3.1.6.4.8.3.1.7 0 .9-.2l.4-.5c.1 0 .3 0 .4.1l.2.6c.1.3.4.5.7.5h.1c.3 0 .6-.3.6-.6l.1-.6c.1 0 .3-.1.4-.1l.5.4c.3.2.6.2.9 0s.4-.5.3-.9l-.2-.6.3-.3.6.1c.3 0 .6-.1.8-.4.1-.3 0-.7-.2-.9l-.5-.5c0-.1 0-.3.1-.4l.6-.2c.3-.1.5-.4.5-.8s-.4-.9-.7-.9zm-2.6 2l-1.1 1.1c-.1.1-.3.2-.5.1l-1.6-.4c-.2-.1-.3-.2-.4-.4l-.4-1.6c-.1-.2 0-.4.1-.5l1.1-1.1c.1-.1.3-.2.5-.1l1.6.4c.2.1.3.2.4.4l.4 1.6c.1.2 0 .4-.1.5zm12.7-16.9l-.6-.4v-.8l.6-.5c.2-.2.3-.5.3-.7-.1-.3-.3-.5-.5-.6l-.7-.2c-.1-.2-.2-.5-.3-.7l.4-.7c.2-.2.2-.5 0-.8-.1-.2-.4-.4-.7-.4l-.8.1c-.2-.2-.3-.4-.5-.6l.2-.8c.1-.3 0-.6-.3-.7-.2-.2-.5-.2-.8-.1l-.7.3c-.2-.1-.4-.3-.7-.4l-.1-.7c0-.3-.2-.5-.5-.6-.3-.1-.6 0-.8.2l-.5.5c-.2-.1-.5-.1-.7-.1l-.4-.7c-.1-.3-.4-.4-.7-.4-.3 0-.5.2-.7.4l-.3.7c-.3.1-.5.1-.8.2l-.6-.5c-.2-.2-.5-.2-.8-.1s-.4.3-.5.6l-.1.8c-.2.1-.4.3-.6.4l-.7-.3c-.3-.1-.6-.1-.8.1-.2.2-.3.5-.2.8l.2.8c-.2.2-.3.4-.5.6h-.8c-.3 0-.5.1-.7.4-.1.2-.1.6 0 .8l.4.6c-.1.2-.2.5-.2.7l-.7.2c-.3.1-.5.3-.5.6-.1.2.1.5.3.7l.6.4v.8l-.6.5c-.2.2-.3.5-.3.7.1.3.3.5.5.6l.7.2c.1.2.2.5.3.7l-.4.7c-.2.2-.2.5 0 .8.1.2.4.4.7.4l.8-.1c.2.2.3.4.5.6l.4.6c-.1.3 0 .6.3.7s.5.2.8.1l.7-.3c.2.1.4.3.7.4l.1.8c0 .3.2.5.5.6.3.1.6 0 .8-.2l.5-.5c.2 0 .5.1.7.1l.4.7c.1.2.4.4.7.4.3 0 .5-.2.7-.4l.3-.7c.3 0 .5-.1.7-.1l.6.5c.2.2.5.2.8.1.3-.1.4-.3.5-.6l.1-.8c.2-.1.4-.3.6-.4l.7.3c.3.1.6.1.8-.1.2-.2.3-.5.2-.8l-.1-.8c.2-.2.3-.4.5-.6h.8c.3 0 .5-.1.7-.4.1-.2.1-.6 0-.8l-.4-.6c.1-.2.2-.5.2-.7l.7-.2c.3-.1.5-.3.5-.6-.5-.2-.6-.5-.9-.7zm-3.7-1.2l-.9 3.5c-.1.4-.4.8-.9.9l-3.5.9c-.4.1-.9 0-1.2-.3l-2.6-2.6c-.3-.3-.4-.8-.3-1.2l.9-3.5c.1-.4.4-.8.9-.9l3.5-.9c.4-.1.9 0 1.2.3l2.6 2.6c.3.3.4.8.3 1.2z"/></g><g class="st1"><path class="st4" d="M571.5 200h-2.6c-.2-.8-.9-1.4-1.7-1.4h-4.1c-1 0-1.7.8-1.7 1.8s.8 1.8 1.7 1.8h2.3c.2.8.8 1.4 1.7 1.4h4.4c1 0 1.7-.8 1.7-1.8s-.8-1.8-1.7-1.8zm.6 1.8c0 .4-.3.7-.7.7H567c-.4 0-.7-.3-.7-.7 0-.4-.3-.7-.7-.7H563c-.4 0-.7-.3-.7-.7 0-.2.1-.4.2-.5.1-.1.3-.2.5-.2h4.1c.4 0 .7.3.7.7 0 .2.1.4.2.5.1.1.3.2.5.2h3c.3 0 .6.3.6.7z"/><path class="st4" d="M586.2 212.5c.9 0 1.6-.6 1.8-1.4h3.1c1 0 1.8-.8 1.8-1.8s-.8-1.8-1.8-1.8h-5.9c-.9 0-1.6.6-1.8 1.4h-.8v-3c0-.3-.2-.5-.5-.5H580v-3.5c0-.3-.2-.5-.5-.5h-1.9v-3.6c0-.3-.2-.5-.5-.5s-.5.2-.5.5v3.6h-1.9c-.3 0-.5.2-.5.5v3.5h-2.1c-.3 0-.5.2-.5.5v11.7c-.9-1.2-2.3-2.1-3.9-2.3V212c0-.3-.2-.5-.5-.5s-.5.2-.5.5v3.3c-2.8.3-5 2.6-5 5.5v7.3c0 .3.2.5.5.5h30.4c.3 0 .5-.2.5-.5v-15.9c0-.2-.1-.4-.2-.5s-.4.1-.5.1l-9.5 4.3v-3.8h3.3zm-19.9 4h1.2c2 .2 3.7 1.9 3.9 3.9h-8.8c0-2.1 1.6-3.7 3.7-3.9zm-1.7 11.2h-2.3v-6.3h2.3v6.3zm3.3 0h-2.3v-6.3h2.3v6.3zm3.4 0H569v-6.3h2.3v6.3zm7.6-19.3c0-.3.2-.5.5-.5s.5.2.5.5v.5c-.5 0-.7.1-1.1.2v-.7zm-4.1 17.2c0 .3-.2.5-.5.5s-.5-.2-.5-.5v-2c0-.3.2-.5.5-.5s.5.2.5.5v2zm0-5.1c0 .3-.2.5-.5.5s-.5-.2-.5-.5v-2c0-.3.2-.5.5-.5s.5.2.5.5v2zm0-5c0 .3-.2.5-.5.5s-.5-.2-.5-.5v-2c0-.3.2-.5.5-.5s.5.2.5.5v2zm0-5.1c0 .3-.2.5-.5.5s-.5-.2-.5-.5v-2c0-.3.2-.5.5-.5s.5.2.5.5v2zm2.5 15.2c0 .3-.2.5-.5.5s-.5-.2-.5-.5v-2c0-.3.2-.5.5-.5s.5.2.5.5v2zm0-5.1c0 .3-.2.5-.5.5s-.5-.2-.5-.5v-2c0-.3.2-.5.5-.5s.5.2.5.5v2zm0-5c0 .3-.2.5-.5.5s-.5-.2-.5-.5v-2c0-.3.2-.5.5-.5s.5.2.5.5v2zm0-5.1c0 .3-.2.5-.5.5s-.5-.2-.5-.5v-2c0-.3.2-.5.5-.5s.5.2.5.5v2zm2.6 15.2c0 .3-.2.5-.5.5s-.5-.2-.5-.5v-2c0-.3.2-.5.5-.5s.5.2.5.5v2zm0-5.1c0 .3-.2.5-.5.5s-.5-.2-.5-.5v-2c0-.3.2-.5.5-.5s.5.2.5.5v2zm0-5c0 .3-.2.5-.5.5s-.5-.2-.5-.5v-2c0-.3.2-.5.5-.5s.5.2.5.5v2zm11.8-2.1v14.3h-9.2v-10.1l9.2-4.2zm-12-1.9c-.4 0-.7-.4-.7-.8s.3-.7.7-.7h3.9c.4 0 .7-.3.7-.7 0-.4.3-.7.7-.7h5.9c.4 0 .7.3.7.7 0 .4-.3.7-.7.7h-3.4c-.4 0-.7.3-.7.7s-.3.7-.7.7l-6.4.1z"/></g><g class="st1"><path class="st4" d="M262.3 72.7h12.2c.5 0 1-.5 1-1v-8c0-.3-.1-.5-.3-.7-.2-.2-.5-.3-.7-.3h-12.1c-.5 0-1 .5-1 1v8c0 .3.1.5.3.7.1.1.3.3.6.3zm1-8.1h3.7l-3.7 3.7v-3.7zm10.1 6h-4.8l4.8-4.8v4.8zm-7.6 0h-2.1l6.1-6.1h2.1l-6.1 6.1zm43.9-4h1.9c.5 0 1-.5 1-1v-2.1c0-.3-.1-.5-.3-.7-.2-.2-.5-.3-.7-.3h-1.9c-.5 0-1 .5-1 1v2.1c0 .3.1.5.3.7.2.3.4.3.7.3z"/><path class="st4" d="M316.2 88.3V62.5c0-1.9-1.6-3.5-3.5-3.5h-5.4v-9.7c0-.5-.5-1-1-1H278c-.3 0-.5.1-.7.3-.2.2-.3.5-.3.7V59h-1.8v-3.4c0-.3-.1-.5-.3-.7-.2-.2-.5-.3-.7-.3h-12c-.5 0-1 .5-1 1V59c-.5 0-1 .1-1.4.3-.3.1-.5.3-.8.5-.1.1-.2.3-.3.3-.4.4-.7.9-.9 1.4-.1.2-.1.3-.1.5-.1.2-.1.3-.1.5V88c0 .1-.1.2-.1.3v2.9c0 1.8 1.5 3.3 3.3 3.3h52c1.8 0 3.3-1.5 3.3-3.3v-2.9zm-38.1 4.2h-16.8c-.9 0-1.5-.7-1.5-1.5v-1.8h54.6V91c0 .9-.7 1.5-1.5 1.5h-34.8zm-14.8-35.9h10V59h-10v-2.4zm13.6 4.4v13.2h-15.6c-.8 0-1.4-.6-1.5-1.4V62.5c0-.4.1-.7.3-1l.1-.1c.3-.3.7-.5 1-.5l15.7.1zm2.1 0h26.3v26.2h-26.5V61h.2zm35.1 1.5v10.1c0 .9-.7 1.5-1.5 1.5h-5.2V61h5.2c.8 0 1.5.7 1.5 1.5zM279 59.1v-8.7h26.3v8.7H279z"/><path class="st4" d="M280.7 76.2c1 5.4 5.8 9.6 11.5 9.6 5.8 0 10.5-4.1 11.5-9.6.1-.3.1-.7.1-1 .1-.3.1-.7.1-1v-.1c0-6.5-5.2-11.7-11.7-11.7-6.5 0-11.7 5.2-11.7 11.7v.1c0 .3 0 .7.1 1 0 .3.1.7.1 1zm1.8-2.1c0-5.4 4.4-9.7 9.7-9.7 5.4 0 9.7 4.4 9.7 9.7v.1c0 .3 0 .7-.1 1-.1.3-.1.7-.2 1-1 4.4-4.8 7.7-9.5 7.7-4.6 0-8.5-3.3-9.5-7.7-.1-.3-.1-.7-.2-1-.1-.3-.1-.7-.1-1 .2 0 .2 0 .2-.1z"/><path class="st4" d="M283.9 75.2c.1.3.1.7.2 1 .9 3.6 4.2 6.2 8 6.2s7.1-2.6 8.1-6.2c.1-.3.1-.7.2-1 .1-.3.1-.7.1-1v-.1c0-4.6-3.7-8.4-8.4-8.4-4.6 0-8.4 3.7-8.4 8.4v.1c.2.4.2.7.2 1zm1.9-1.1c0-3.6 2.9-6.5 6.5-6.5.2 0 .3.1.5.1.3.1.5.5.5.9 0 .5-.5 1-1 1-2.5 0-4.5 2-4.5 4.5v.1c-.1.5-.5.9-1 .9-.4 0-.7-.3-.9-.6-.1-.1-.1-.2-.1-.3v-.1zm9.5 5.7c-.1.1-.3.1-.5.1-.3 0-.7-.2-.9-.5-.3-.5-.1-1.1.4-1.4.7-.4 1.3-1 1.7-1.6.1-.1.1-.1.1-.2.3-.3.8-.4 1.2-.1.1.1.1.1.2.1.2.2.3.5.3.7 0 .2-.1.3-.1.5-.5 1-1.3 1.8-2.4 2.4zm7.7-27.9h-21.6c-.5 0-1 .5-1 1v3.9c0 .5.5 1 1 1H303c.5 0 1-.5 1-1v-3.9c-.1-.6-.5-1-1-1zm-1 3.9h-19.6v-1.9H302v1.9z"/></g></g><g id="Layer_5" opacity=".15"><path d="M244.3 279.6l-19.5-38.9c-3.1 1.4-6.6 2.2-10.3 2.2-6.1 0-11.7-2.2-16.1-5.8l-99.2 99.2c5.2 5.8 8.6 13.4 9.2 21.7h87.8c.5-34 19.8-63.5 48.1-78.4zM619.5 310l-30-60.1c-4 1.6-8.4 2.4-13 2.4-5.2 0-10.1-1.1-14.5-3.1L517 339c6.5 4.1 10.9 11 11.7 19h61.6c.9-20.5 12.4-38.3 29.2-48zM136.8 133.7l62.8 63.2c4.2-3 9.3-4.8 14.9-4.8 3.4 0 6.5.7 9.5 1.8l35.3-70.5c-17.3-9.6-29.1-27.7-29.9-48.7l-67.7-.3c-.8 23-10.1 43.8-24.9 59.3zM684.4 70h81c1.1-8 6-14.9 12.8-18.7L719.5-65.9 666 41c10.4 5.8 17.6 16.5 18.4 29zM189.1 217.5c0-6.7 2.6-12.7 6.7-17.2l-62.6-63c-15.6 14.6-36.4 23.8-59.3 24.4v162.8c8.2.3 15.7 3.4 21.6 8.4l99.3-99.3c-3.5-4.4-5.7-10-5.7-16.1zm314.4 117.6c3.2 0 6.2.6 9.1 1.7l44.9-89.8c-10.2-6.3-17-17.7-17-30.6 0-4.7.9-9.3 2.6-13.4l-71.9-35.9c-7.2 13.5-21 23-37.1 24.3v59.4c18.3 1.9 32.6 17.5 32.6 36.3 0 9.2-3.4 17.6-9 24l29.8 29.8c4.3-3.6 9.9-5.8 16-5.8zm-109.9-48c0-19.8 15.7-35.9 35.4-36.5v-59.1c-7.9-.3-15.3-2.5-21.7-6.2l-67.5 101.3c11.3 8.2 20.5 19 27 31.5l30.4-15.2c-2.3-4.8-3.6-10.2-3.6-15.8zm337.5-138.6c15.4-13.9 35.6-22.5 57.9-23.1V98.8c-12.8-.7-23.1-11-23.8-23.8h-80.8c-.5 6.4-2.6 12.3-5.9 17.3l52.6 56.2zM815.8 75c-.7 12.1-10 22-21.8 23.6v26.7c23.3.6 44.4 10.1 60 25.1L929.5 75H815.8zM675.4 96.3c-6.6 7.4-16.2 12.1-26.9 12.1-3 0-5.9-.4-8.7-1.1L595.5 186c9.5 6 16 16.2 16.8 28h89c.4-24.2 10.3-46.1 26.2-62.1l-52.1-55.6zm26 122.7h-89.1c-.9 12.4-8 23.1-18.3 28.8l29.9 59.9c7.5-3.5 15.8-5.4 24.6-5.4 14.9 0 28.5 5.6 38.8 14.9l39.1-39.1c-14.8-15.5-24.2-36.2-25-59.1zM505.5 24.9c-3.9 0-7.7-.9-11-2.5l-41.1 83.3c8.8 5.1 15.7 12.9 19.6 22.4l140.5-46.8c-.7-2.8-1.1-5.7-1.1-8.8 0-5.9 1.4-11.5 4-16.5l-89.3-43.2c-4.4 7.2-12.4 12.1-21.6 12.1zm-29 120.6c0 6-1.2 11.8-3.3 17.1l72 36c6.2-10.8 17.9-18.1 31.2-18.1 5.3 0 10.2 1.1 14.7 3.2l43.8-77.9c-9-3.7-16.2-10.8-19.8-19.8l-140.4 46.8c1.2 4 1.8 8.3 1.8 12.7zm1.6 215c0-6.1 2.2-11.7 5.8-16.1l-29.8-29.8c-6.4 5.6-14.8 9-24 9-12.7 0-23.9-6.5-30.5-16.4L369 322.5c5.1 11.3 7.9 23.8 7.9 37 0 25.3-10.4 48.2-27.2 64.6l81.1 76.3L490 382c-7.2-4.5-11.9-12.5-11.9-21.5zm112.2 2.5h-61.6c-.8 8-5.3 14.9-11.7 19l58.5 116.9 44-87.9c-16.8-9.7-28.3-27.5-29.2-48zM69 324.6V161.7c-15.5-.4-30.1-4.8-42.7-12.1l-86.2 138 101.6 54.2c5.7-9.5 15.7-16.1 27.3-17.2zm152.8 98c-15.1-15.5-24.8-36.4-25.6-59.6h-87.8c-.9 12.4-8.1 23.1-18.4 28.9l54.2 108.4 77.6-77.7zm65.7-291.9c-8.5 0-16.5-1.8-23.8-5.1l-35.3 70.6c3.9 2.5 7 6.1 9 10.3L386 157c-1-3.7-1.5-7.6-1.5-11.5 0-7 1.6-13.6 4.3-19.5l-50.4-25.2c-9.9 17.8-29 29.9-50.9 29.9zM730 281.5l-39.1 39.1c9.8 10.4 15.8 24.4 15.8 39.9 0 11.8-3.5 22.9-9.6 32.1l162.4 115-49.4-203.8c-6 1.3-12.2 1.9-18.6 1.9-23.8 0-45.4-9.2-61.5-24.2zM387.5 161.8l-148.4 49.5c.5 2 .8 4.1.8 6.2 0 8.6-4.2 16.1-10.7 20.7l19.6 39.2c11.5-5.3 24.3-8.3 37.8-8.3 18.1 0 35 5.4 49.2 14.6l67.5-101.2c-7.2-5.2-12.7-12.4-15.8-20.7zm-46.9-65.5l50.6 25.3c8.1-13.2 22.6-22.1 39.3-22.1 6.6 0 12.8 1.4 18.5 3.9l41.2-83.6c-3.8-2.8-6.7-6.7-8.4-11.2L343.3 56c1.5 5.2 2.4 10.8 2.4 16.5 0 8.5-1.8 16.5-5.1 23.8z" fill="none"/><path class="st4" d="M876.6 245.6l130.1 45.3 1.6-4.7-130.2-45.3c2.3-8 3.6-16.5 3.6-25.3 0-23.8-9.2-45.4-24.2-61.5l79.7-79.7-1.8-1.8V70H815.6c-1.1-8.2-6.2-15.2-13.3-18.9l63.5-166.7-4.7-1.8-63.4 166.6c-2.3-.7-4.7-1-7.2-1-2.7 0-5.3.4-7.8 1.2l-61-122-2.2 1.1-2.2-1.1-55.8 111.5c-4-1.6-8.4-2.4-13-2.4-12.1 0-22.9 6-29.4 15.2L529.3 8.2c1-2.7 1.5-5.7 1.5-8.7 0-14-11.4-25.4-25.4-25.4S480-14.5 480-.5c0 1.4.1 2.9.4 4.2L341.7 51.3c-8.5-21.7-29.6-37-54.2-37-15.2 0-29 5.8-39.4 15.3L145.3-73.3l-3.5 3.5L244.6 33.1c-8.9 9.7-14.6 22.5-15.3 36.6l-67.7-.3c-1.1-48.9-41.1-88.1-90.2-88.1-49.8 0-90.2 40.4-90.2 90.2 0 31.6 16.2 59.3 40.7 75.4l-87.6 140.2 2.1 1.3-1.2 2.2 104.1 55.5c-1.9 4.4-2.9 9.2-2.9 14.2 0 4.8 1 9.4 2.7 13.6l-111.8 56.3 2.2 4.5 111.7-56.3c6.2 10.7 17.8 17.9 31.1 17.9 4.6 0 8.9-.9 13-2.4l55.8 111.6 2.2-1.1 1.8 1.8 80.2-80.2c16.1 14.8 37.5 23.8 61.1 23.8 22.8 0 43.6-8.4 59.5-22.4l83.8 78.8 1.7-1.8 2.2 1.1 60.7-121.4c2.8 1.1 5.9 1.7 9.1 1.7 3.2 0 6.2-.6 9.1-1.7l60.7 121.4 2.2-1.1 2.2 1.1 46.2-92.3c7.5 3.5 15.8 5.4 24.6 5.4 18.5 0 35-8.6 45.7-22.1L862 515.4l1.4-2 2.4-.6-51-210.3c28.9-7.6 51.9-29.1 61.8-56.9zM648.5 413.7c-29.3 0-53.2-23.9-53.2-53.2s23.9-53.2 53.2-53.2 53.2 23.9 53.2 53.2-23.9 53.2-53.2 53.2zM528.8 358c-.8-8-5.3-14.9-11.7-19l44.8-89.7c4.4 2 9.4 3.1 14.5 3.1 4.6 0 9-.9 13-2.4l30 60.1c-16.8 9.7-28.3 27.4-29.1 48h-61.5zm-420.4 0c-.5-8.3-3.9-15.9-9.2-21.7l99.2-99.2c4.4 3.6 10 5.8 16.1 5.8 3.7 0 7.2-.8 10.3-2.2l19.5 38.9C216 294.5 196.7 324 196.2 358h-87.8zm-66.9 2.4c0-17.1 13.9-31 31-31s31 13.9 31 31-13.9 31-31 31-31-13.9-31-31zm30-374.1c47 0 85.2 38.2 85.2 85.2s-38.2 85.2-85.2 85.2-85.2-38.2-85.2-85.2 38.2-85.2 85.2-85.2zm162.8 86.2c0-29.3 23.9-53.2 53.2-53.2s53.2 23.9 53.2 53.2c0 29.3-23.9 53.2-53.2 53.2s-53.2-23.9-53.2-53.2zM765.2 75c.7 12.8 11 23.1 23.8 23.8v26.5c-22.2.6-42.5 9.3-57.9 23.1l-52.7-56.2c3.3-5 5.4-10.9 5.9-17.3h80.9zm45.7-1.5c0 11.2-9.1 20.4-20.4 20.4s-20.4-9.1-20.4-20.4 9.1-20.4 20.4-20.4 20.4 9.2 20.4 20.4zM612.3 214c-.8-11.8-7.3-22.1-16.8-28l44.2-78.6c2.8.7 5.7 1.1 8.7 1.1 10.7 0 20.3-4.7 26.9-12.1l52.1 55.6c-15.9 16-25.8 37.9-26.2 62.1h-88.9zm-4.9 2.4c0 17.1-13.9 31-31 31s-31-13.9-31-31 13.9-31 31-31 31 14 31 31zM794 125.3V98.6c11.9-1.6 21.1-11.5 21.8-23.6h113.6L854 150.5c-15.6-15.1-36.7-24.6-60-25.2zM679.5 72.4c0 17.1-13.9 31-31 31s-31-13.9-31-31 13.9-31 31-31 31 13.9 31 31zm-44.6 33.3l-43.8 77.9c-4.5-2-9.5-3.2-14.7-3.2-13.4 0-25 7.3-31.2 18.1l-72-36c2.1-5.3 3.3-11 3.3-17.1 0-4.4-.6-8.7-1.8-12.8l140.4-46.8c3.7 9.1 10.8 16.3 19.8 19.9zM430.1 255.6c17.4 0 31.5 14.1 31.5 31.5s-14.1 31.5-31.5 31.5-31.5-14.1-31.5-31.5 14.1-31.5 31.5-31.5zm-143.6 13.5c-13.5 0-26.3 3-37.8 8.3l-19.6-39.2c6.5-4.6 10.7-12.2 10.7-20.7 0-2.2-.3-4.2-.8-6.2l148.4-49.5c3.2 8.3 8.6 15.5 15.7 20.7l-67.5 101.2c-14.1-9.2-31-14.6-49.1-14.6zM95.6 332.8c-5.9-5-13.4-8.1-21.6-8.4V161.7c22.9-.6 43.7-9.8 59.3-24.4l62.6 63c-4.2 4.5-6.7 10.6-6.7 17.2 0 6.1 2.2 11.7 5.8 16.1l-99.4 99.2zm98.5-115.3c0-11.2 9.1-20.4 20.4-20.4s20.4 9.1 20.4 20.4-9.1 20.4-20.4 20.4-20.4-9.2-20.4-20.4zm277.4-72c0 22.6-18.4 41-41 41s-41-18.4-41-41 18.4-41 41-41 41 18.4 41 41zm-87 0c0 4 .5 7.9 1.5 11.5l-148.6 49.5c-2-4.2-5.1-7.8-9-10.3l35.3-70.6c7.3 3.3 15.3 5.1 23.8 5.1 21.9 0 41-12.1 50.9-30l50.4 25.2c-2.7 6-4.3 12.6-4.3 19.6zm-125.2-22.1L224 194c-2.9-1.2-6.1-1.8-9.5-1.8-5.6 0-10.7 1.8-14.9 4.8l-62.8-63.2c14.8-15.5 24.1-36.3 24.8-59.3l67.7.3c.8 20.9 12.7 39 30 48.6zm-58.2 236.1c0-47.1 38.3-85.4 85.4-85.4s85.4 38.3 85.4 85.4-38.3 85.4-85.4 85.4-85.4-38.3-85.4-85.4zm138.7-73l67.5-101.3c6.4 3.7 13.8 6 21.7 6.2v59.1c-19.6.6-35.4 16.7-35.4 36.5 0 5.7 1.3 11 3.6 15.8L366.8 318c-6.4-12.4-15.7-23.2-27-31.5zm126.8.6c0-18.9-14.3-34.4-32.6-36.3v-59.4c16.1-1.2 29.9-10.7 37.1-24.3L543 203c-1.7 4.1-2.6 8.7-2.6 13.4 0 12.9 6.8 24.2 17 30.6l-44.9 89.8c-2.8-1.1-5.9-1.7-9.1-1.7-6.1 0-11.7 2.2-16.1 5.8l-29.8-29.8c5.7-6.4 9.1-14.8 9.1-24zm16.5 73.4c0-11.2 9.1-20.4 20.4-20.4s20.4 9.1 20.4 20.4-9.1 20.4-20.4 20.4-20.4-9.2-20.4-20.4zm204.2-43.4c-10.3-9.2-23.9-14.9-38.8-14.9-8.8 0-17.1 2-24.6 5.4L594 247.8c10.3-5.8 17.4-16.4 18.3-28.8h89.1c.9 22.9 10.3 43.6 25.1 59l-39.2 39.1zm104.2-16.4c-47 0-85.2-38.2-85.2-85.2s38.2-85.2 85.2-85.2 85.2 38.2 85.2 85.2-38.2 85.2-85.2 85.2zm-72-366.6l58.6 117.2c-6.8 3.8-11.7 10.6-12.8 18.7h-81c-.8-12.5-8-23.2-18.3-29l53.5-106.9zm-103 121.8c-2.5 4.9-4 10.5-4 16.5 0 3 .4 6 1.1 8.8L473.1 128c-3.9-9.5-10.8-17.3-19.6-22.4l41.1-83.3c3.3 1.6 7.1 2.5 11 2.5 9.2 0 17.2-4.9 21.7-12.2l89.2 43.3zM485.1-.5c0-11.2 9.1-20.4 20.4-20.4s20.4 9.1 20.4 20.4-9.1 20.4-20.4 20.4-20.4-9.2-20.4-20.4zm-3.3 9.1c1.7 4.5 4.7 8.3 8.4 11.2L449 103.4c-5.7-2.5-11.9-3.9-18.5-3.9-16.6 0-31.2 8.8-39.3 22.1l-50.6-25.3c3.3-7.3 5.1-15.3 5.1-23.8 0-5.7-.8-11.3-2.4-16.5L481.8 8.6zM-60 287.6l86.2-138c12.6 7.3 27.2 11.7 42.7 12.1v162.9c-11.6 1.1-21.6 7.7-27.3 17.2L-60 287.6zM90 391.9c10.3-5.8 17.5-16.4 18.4-28.9h87.8c.9 23.2 10.5 44.1 25.6 59.6l-77.7 77.7L90 391.9zm340.8 108.5l-81.1-76.3c16.8-16.4 27.2-39.3 27.2-64.6 0-13.2-2.8-25.7-7.9-37l30.7-15.3c6.5 9.9 17.7 16.4 30.5 16.4 9.2 0 17.5-3.4 24-9l29.8 29.8c-3.6 4.4-5.8 10-5.8 16.1 0 9 4.7 17 11.9 21.5l-59.3 118.4zm144.7-1.5L517 382c6.5-4.1 10.9-11 11.7-19h61.6c.9 20.5 12.4 38.3 29.1 48l-43.9 87.9zm284 8.7l-162.4-115c6.1-9.2 9.6-20.2 9.6-32.1 0-15.4-6-29.5-15.8-39.9l39.1-39.1c16.1 15 37.7 24.2 61.5 24.2 6.4 0 12.6-.7 18.6-1.9l49.4 203.8z"/><path class="st4" d="M408.1 299.7c0 .5.4.8.8.8H453c.5 0 .8-.4.8-.8v-2.9c0-.5-.4-.8-.8-.8h-1.9v-2c0-.5-.4-.8-.8-.8h-1.5V281h1.3c.5 0 .8-.4.8-.8V277c0-.3-.2-.6-.5-.8l-19.2-7.4c-.2-.1-.4-.1-.6 0l-19.2 7.4c-.3.1-.5.4-.5.8v3.2c0 .5.4.8.8.8h1.8v12.2h-1.8c-.5 0-.8.4-.8.8v2H409c-.5 0-.8.4-.8.8v2.9zm32.9-18.8h3v12.2h-3v-12.2zm-4.6 0v12.2h-3v-12.2h3zm-7.7 0v12.2h-3v-12.2h3zm-7.6 0v12.2h-3v-12.2h3zM283 404.4v7.7h-10.2c-1.9 0-3.4 1.2-3.4 3.1 0 1.9 1.5 3.1 3.4 3.1h28.9c1.9 0 3.4-1.2 3.4-3.1 0-1.9-1.5-3.1-3.4-3.1h-11.3v-7.5c8.6-.3 17.7-2.8 25.6-7.7l2.6 3.6c1.1 1.6 3.3 1.9 4.8.9 1.6-1.1 2-3.2.9-4.8l-4.4-6.4c-.5-.8-1.3-1.3-2.2-1.4-.9-.2-1.8 0-2.6.6-21.1 14.8-50.5 9.4-65.6-12-15-21.4-10.1-50.9 11-65.7 1.5-1.1 1.9-3.1.9-4.7l-5-7.6c-1-1.6-3.2-2-4.8-1-1.6 1-2 3.2-1 4.8l3.2 4.9c-21.9 17.5-27 49.7-10.5 73.3 9.9 13.7 24.9 21.6 39.7 23z"/><path class="st4" d="M263.8 313.6c-.1.1-.3.2-.4.2-.2.2-.4.3-.7.5-9.8 7.2-15.7 17.7-17.4 28.9-.1.3-.1.5-.1.8-1.3 10.4 1 21.3 7.5 30.5 6.3 9 15.7 15.3 26.3 17.6h.2c3 .7 6.2 1 9.4 1 9 0 17.6-2.7 25-7.9 10.2-7.1 16.5-17.9 18.2-29.4.1-.2.1-.4.1-.6 1.4-10.5-.9-21.5-7.4-30.8-6.4-9.1-15.9-15.4-26.6-17.7h-.2c-3-.6-6-1-9.1-1-8.8 0-17.4 2.6-24.7 7.7 0 .1-.1.1-.1.2zm.9 29.2c3.6-1.6 7.3-3.6 10.8-5.9l8.3 11.9-12.3 8.5c-3-4.8-5.3-9.7-6.8-14.5zm-1.6-6.9c-.1-.4-.1-.8-.2-1.2-.6-5.4.2-10 2.2-12.9l6.5 9.4c-2.8 1.8-5.7 3.4-8.5 4.7zm-7.3-3.2c0 .9.1 1.8.2 2.8.1 1 .3 2.1.5 3.1-1.1.4-2.3.8-3.4 1.1.7-2.4 1.6-4.8 2.7-7zm.8 35c-3.7-6.5-5.2-13.6-4.7-20.7 2.1-.4 4.2-1 6.4-1.7 1.7 5.3 4.3 10.7 7.6 15.9l-9.3 6.5zm21.6 17.2c-6.9-2-13.1-6-17.8-11.6l9.3-6.5c3.8 5 8 9.2 12.3 12.6-1.3 1.9-2.6 3.7-3.8 5.5zm10.4 1.5c-1 0-2 0-3-.1.7-1 1.4-1.9 2.2-2.9 1.8 1.1 3.6 2 5.4 2.7-1.5.2-3 .3-4.6.3zm15.1-4.9c-3.4 0-7.2-1.2-11.1-3.3 2.2-2.2 4.6-4.2 7.2-6.2l6.4 9.2c-.8.2-1.6.3-2.5.3zm-10.3-31l11.6-8.2c2.9 4.7 5 9.6 6.2 14.3-3.6 1.5-6.5 3.4-9.8 5.6l-8-11.7zm-4-5.7l-8.3-11.9c3.3-2.5 6.3-5.1 9-7.9 3.9 3 7.8 6.9 11.3 11.4l-12 8.4zm15.9-2.7c0-.1 0 0 0 0zm0-.1zm-3.8 20.4c.1 0 .1 0 0 0zm10.4 14.9l-6.4-9.3c2.7-1.7 5.5-3.3 8.3-4.6.1.4.1.8.2 1.2.5 5.3-.2 9.8-2.1 12.7zm9.1-10.1c-.1-2-.3-4.2-.7-6.4 1.3-.4 2.5-.8 3.8-1.2-.8 2.6-1.8 5.2-3.1 7.6zm-.3-35.8c3.2 5.7 4.5 11.9 4.5 18.1 0 .9-.4 1.8-.4 2.8-2.5.4-3.7 1-6.1 1.8-2.5-5.2-4.3-10.6-7.6-15.9l9.6-6.8zm-21.9-17.3c7 2 13.2 6 18 11.6l-9.7 6.8c-3.8-5-8-9.2-12.3-12.6 1.4-1.9 2.8-3.8 4-5.8zm-10.2-1.4c.9 0 1.9 0 2.8.1-.7 1-1.5 2.1-2.4 3.2-1.9-1.1-3.8-2.1-5.8-2.9 1.8-.3 3.6-.4 5.4-.4zm-15.5 5.1c3.4 0 7.2 1.2 11.1 3.3-2.2 2.1-4.5 4.2-7.1 6.1l-6.4-9.2c.8-.1 1.6-.2 2.4-.2zm14.5 36.6l8.3 11.9c-3.4 2.5-6.4 5.2-9.2 8-3.9-3-7.8-6.9-11.3-11.4l12.2-8.5zM209 228.9c.1.2.3.3.4.3h.1c.2 0 .3-.1.4-.2 4.7-5.4 10.9-7.7 11.3-7.8h.1s.1 0 .1-.1l.1-.1v-.1c2.5-5.5 6.8-8.5 6.8-8.6.3-.1.3-.4.3-.6-.1-.2-.3-.4-.5-.4h-.8c-5.3 0-8.8 1.7-10.5 2.8-3.5-3.6-6.5-4.6-6.6-4.6s-.3 0-.4.1c-5.1 3-10.2 8.4-10.4 8.6-.1.1-.2.3-.2.5s.2.3.3.4c0-.1 5.6 2.7 9.5 9.8zm-8.4-10.6c1.4-1.4 5.5-5.4 9.4-7.8.7.3 3.1 1.4 5.8 4.1l.4.4c1 1 2.1 2.3 3.1 3.8.3.5.6.9.9 1.4-.1 0-.1.1-.2.1-1.9.8-6.5 3-10.5 7.2-3.1-5.4-7.2-8.2-8.9-9.2z"/><path class="st4" d="M206.6 220.9c.2-.2.2-.6 0-.8-.9-.8-1.8-1.6-2.8-2.3-.3-.2-.6-.1-.8.2-.2.3-.1.6.2.8 1 .7 1.9 1.4 2.7 2.2.1.1.3.2.4.2 0-.2.2-.2.3-.3zm-2-3.8c1.1.7 2.1 1.4 2.9 2.2.1.1.3.1.4.1.2 0 .3-.1.4-.2.2-.2.2-.6 0-.8-.9-.8-1.9-1.6-3-2.3-.3-.2-.6-.1-.8.2s-.1.7.1.8zm1.8-1.3c1 .6 1.9 1.3 2.8 2 .1.1.2.1.3.1.2 0 .3-.1.4-.2.2-.2.2-.6-.1-.8-.9-.8-1.9-1.5-2.9-2.1-.3-.2-.6-.1-.8.2 0 .2.1.6.3.8zm3.4 9.8c.1 0 .1 0 0 0 .2 0 .4-.1.5-.2 1.6-1.4 2.7-2.2 3.7-2.9.3-.2.3-.5.2-.8-.8-1.3-1.4-2.1-2.6-3.3-.2-.2-.5-.2-.7-.1-1.1.7-2.3 1.7-3.7 3.4-.2.2-.2.5 0 .7.2.2.3.3.4.5.6.6 1.1 1.2 1.7 2.3.2.3.3.4.5.4zm-1.4-3.5c1-1.2 1.9-2 2.8-2.6.8.8 1.3 1.4 1.8 2.3-.9.6-1.8 1.3-2.9 2.3-.5-.8-1-1.4-1.5-1.9-.1 0-.2 0-.2-.1zm7-.8c.1.2.3.3.5.3.1 0 .2 0 .3-.1.3-.2.3-.5.2-.8-1.8-2.9-4.4-5.5-7.6-7.3-.3-.2-.6-.1-.8.2s-.1.6.2.8c3.1 1.8 5.5 4.1 7.2 6.9zM210 213c3.2 1.7 5.7 4 7.4 6.9.1.2.3.3.5.3.1 0 .2 0 .3-.1.3-.2.3-.5.2-.8-.4-.8-.9-1.5-1.5-2.1-.5-.6-1-1.2-1.5-1.7-1.4-1.4-3-2.6-4.8-3.5-.3-.2-.6 0-.8.2-.2.4-.1.7.2.8zm598.1 31.5v18.4c0 1.3.7 2.4 2 2.4h30.8c1.3 0 2.2-1 2.2-2.4v-54.1c0-1.3-1.3-3.2-2.7-3.2h-14.2v-34.9c0-1.8-2.1-4-3.9-4h-74c-1.8 0-3.8 2.2-3.8 4v52.2s-13.2 10.7-14.7 12c-.5.4-.9 1.2-.9 2v4.2c0 1.8 1.7 3.5 3.5 3.5h75.7zm20.5 16c-.5 1-1.6 1.7-2.8 1.7s-2.3-.7-2.8-1.7c-.2-.4-.4-.9-.4-1.5 0-.7.2-1.3.5-1.8.6-.8 1.5-1.4 2.6-1.4s2.1.6 2.6 1.4c.3.5.5 1.1.5 1.8.2.6 0 1.1-.2 1.5zm9.3-49.7v41.5h-24.6v-41.5h24.6zM751 173.2h68.8v32.4h-8.7c-1.3 0-3 1.8-3 3.2v11.1H751v-46.7zm-15.6 66.2c-.7 0-1.7-.9-1.7-2 0-1 .8-1.9 1.5-1.9h72.7l.1 3.9h-72.6z"/><path class="st4" d="M755.3 215.5c.4.3.9.4 1.3.4.7 0 1.4-.3 1.8-.9l26.4-35.7c.7-1 .5-2.4-.5-3.2-1-.7-2.4-.5-3.2.5l-26.4 35.7c-.7 1-.5 2.4.6 3.2zm0-15.6c.4.3.9.4 1.3.4.7 0 1.4-.3 1.8-.9l15.5-20.5c.7-1 .5-2.4-.5-3.2s-2.4-.5-3.2.5l-15.5 20.5c-.7 1.1-.5 2.5.6 3.2zm60.5 24.1c-.7 1-.5 2.4.5 3.2.4.3.9.4 1.3.4.7 0 1.4-.3 1.8-.9l6.5-8.8c.7-1 .5-2.4-.5-3.2-1-.7-2.4-.5-3.2.5l-6.4 8.8zm1.3 12.5c-.7 1-.5 2.4.5 3.2.4.3.9.4 1.3.4.7 0 1.4-.3 1.8-.9l13.9-19.2c.7-1 .5-2.4-.5-3.2-1-.7-2.4-.5-3.2.5l-13.8 19.2zM672.3 359.1c0-13.4-10.9-24.3-24.3-24.3s-24.2 11-24.2 24.3c0 8.1 4.1 15.7 10.8 20.2V392c0 1.5 1.2 2.7 2.7 2.7h21.5c1.5 0 2.7-1.2 2.7-2.7v-12.7c6.7-4.4 10.8-12 10.8-20.2zm-16.2 30.3H640V385h16.1v4.4zm1.3-13.9c-.8.5-1.3 1.4-1.3 2.4v1.7h-5.4v-8.8c.4 0 .7.1 1.1.1 3 0 5.8-1.1 7.9-3.3 2.8-2.8 3.9-7 2.9-10.8-.2-.9-1-1.6-1.9-1.9-1-.2-1.9-.4-2.9-.4-3 0-5.8 1.1-7.9 3.3-.8.8-1.5 1.7-2 2.6-.5-.8-1.1-1.6-1.7-2.3-2-2-4.7-3.2-7.7-3.2-1 0-1.9.2-2.8.4-.9.2-1.6 1-1.9 1.9-1 3.8.1 7.8 2.8 10.5 2 2 4.7 3.2 7.7 3.2.3 0 .7 0 1-.1v8.8H640v-1.7c0-1-.5-1.9-1.3-2.4-6-3.4-9.7-9.6-9.7-16.4 0-10.4 8.5-18.9 18.9-18.9s18.9 8.5 18.9 18.9c.1 6.7-3.5 13-9.4 16.4zm-16.9-11.6c-1-1-1.5-2.2-1.6-3.5 1.3.1 2.6.7 3.5 1.6.9 1 1.5 2.2 1.6 3.5-1.3-.1-2.6-.7-3.5-1.6zm15.4-.1c-1.1 1.1-2.5 1.6-3.9 1.7.1-1.5.7-2.9 1.7-3.9 1.1-1.1 2.5-1.6 3.9-1.7 0 1.4-.6 2.8-1.7 3.9zm-31-24.5c.5.6 1.2.9 2 .9.7 0 1.3-.2 1.8-.7 1.1-1 1.2-2.7.2-3.8l-3.5-3.9c-1-1.1-2.7-1.2-3.8-.2-1.1 1-1.2 2.7-.2 3.8l3.5 3.9zm42.5.3c.4.5 1.1.7 1.7.7.7 0 1.5-.3 2-.9l3.4-3.9c1-1.1.9-2.9-.2-3.8-1.1-1-2.9-.9-3.8.2l-3.4 3.9c-.9 1.2-.9 2.9.3 3.8zm16.4 22c1.5 0 2.7-1.2 2.7-2.7 0-1.5-1.2-2.7-2.7-2.7h-5.3c-1.5 0-2.7 1.2-2.7 2.7 0 1.5 1.2 2.7 2.7 2.7h5.3zm-71.6 0h5.3c1.5 0 2.7-1.2 2.7-2.7 0-1.5-1.2-2.7-2.7-2.7h-5.3c-1.5 0-2.7 1.2-2.7 2.7 0 1.5 1.3 2.7 2.7 2.7zm35.8-29.5c1.5 0 2.7-1.2 2.7-2.7v-5.5c0-1.5-1.1-2.7-2.7-2.7-1.5 0-2.7 1.2-2.7 2.7v5.5c.1 1.4 1.2 2.7 2.7 2.7z"/><path class="st4" d="M625.4 385.9l3.4-3.8c1-1.1.9-2.8-.2-3.8s-2.8-.9-3.8.2l-3.4 3.8c-1 1.1-.9 2.8.2 3.8.5.5 1.1.7 1.8.7.8 0 1.5-.3 2-.9zm49.2-3.7l-3.5-3.8c-1-1.1-2.7-1.2-3.8-.2-1.1 1-1.2 2.7-.2 3.8l3.4 3.8c.6.6 1.3.9 2 .9s1.3-.2 1.8-.7c1.2-1 1.3-2.7.3-3.8zM461.5 146.3c.8 0 1.4-.6 1.4-1.4 0-.8-.6-1.4-1.4-1.4h-8.9c-.8 0-1.4.6-1.4 1.4 0 .8.6 1.4 1.4 1.4h8.9zm-14.7-11.9c.3.3.7.4 1 .4s.7-.1 1-.4l6.3-6.3c.5-.5.5-1.5 0-2s-1.5-.5-2 0l-6.3 6.3c-.5.6-.5 1.5 0 2zm0 21c-.5.5-.5 1.5 0 2l6.3 6.3c.3.3.7.4 1 .4s.7-.1 1-.4c.5-.5.5-1.5 0-2l-6.3-6.3c-.5-.6-1.4-.6-2 0zm-9.3-34.5h-.3c-.3 0-.5 0-.7.1-.8.2-1.5.7-2.3 1.3L412.8 135h-8.2c-.5 0-1.1.3-1.3.9l-.7 1.5c-2.2 5-2.2 10.6 0 15.6l.7 1.5c.2.5.7.9 1.3.9h8.2l21.5 12.7c.7.7 1.4 1.1 2.3 1.3.2.1.4.1.5.1h.4c5.8 0 8.8-12.2 8.8-24.2s-3-24.4-8.8-24.4zm-32.3 30.8c-1.9-4.2-1.9-9.1 0-13.3l.3-.7h5.4c-1.9 4.7-1.9 9.9 0 14.6h-5.4l-.3-.6zm9 1c-2.5-4.8-2.5-10.5 0-15.2l17.2-10.1c-1.7 4.6-2.6 11.2-2.6 17.8s.9 13.1 2.6 17.8l-17.2-10.3zm17.3-7.7c0-2.4.1-4.6.3-6.7 2.6 1.3 4.2 3.8 4.2 6.7 0 2.8-1.7 5.5-4.2 6.7-.1-2-.3-4.3-.3-6.7zm12 0c0 13-3.6 21.3-6 21.3l-1.4-.8c-1.5-1.6-3-5.4-3.8-10.9 4-1.5 6.7-5.4 6.7-9.6 0-4.3-2.6-8.1-6.7-9.6.9-5.5 2.4-9.3 3.8-10.9l1.4-.8h.1c2.4 0 5.9 8.4 5.9 21.3zM69.2 92s28-32 28-56.6c0-15.4-12.5-28-28-28-15.4 0-28 12.5-28 28 0 24.3 28 56.6 28 56.6zM54.7 36.4c0-8.1 6.6-14.7 14.7-14.7S84 28.3 84 36.4 77.4 51 69.3 51s-14.6-6.5-14.6-14.6z"/><path class="st4" d="M31.4 123.4h75.2c2.1 0 3.8-2.4 3.8-4.5 0-.3 0-1.4-.1-1.7l-8.5-42.6c-.4-1.8-1.9-2.3-3.7-2.3h-6.4c-.9 1.2-4.1 6.2-4.7 7.5h8l1 6.2H83.5s-5.5 6.4-7.2 8.5l.5 5.2H60.6l.6-6c-1.7-2.1-4-4-6.6-7.7H42.1l1-6.2h8.5c-.7-1.2-3.9-6.2-4.7-7.5H40c-1.8 0-3.3.5-3.7 2.3l-8.6 43.2c-.2 1.1.1 2.8.8 3.7.7.9 1.8 1.9 2.9 1.9zm54.9-8.7l-.9-7.5h15l1.6 7.5H86.3zm11.2-22.4l1.4 7.5H84.5l-.8-7.5h13.8zm-19.7 14.9l.9 7.5H59l.9-7.5h17.9zM40.5 92.3h13.4l-.8 7.5h-14l1.4-7.5zm-2.9 14.9h14.7l-.9 7.5H36l1.6-7.5zm763.6-42.5H781c-.7 0-1.2.5-1.2 1.2v14.5c0 .7.5 1.2 1.2 1.2h20.3c.7 0 1.2-.5 1.2-1.2V65.9c-.1-.7-.7-1.2-1.3-1.2zM786.8 68c1.4 0 2.6 1.2 2.6 2.6 0 1.4-1.2 2.6-2.6 2.6-1.4 0-2.6-1.2-2.6-2.6 0-1.4 1.2-2.6 2.6-2.6zM800 79.1h-17.8v-4.6l3.5 2.2c.6.4 1.4.3 1.9-.1l6.6-5.2c.5-.4 1.3-.5 1.9-.1l3.8 2.3v5.5zm-161.2 7.1v-3.8l.8 1.1c.4.4.9.7 1.4.7.5 0 1.1-.3 1.4-.8l3.8-5.3c.5-.7.5-1.6 0-2.2l5-7.1c.2-.3.1-.6-.1-.8-.3-.2-.6-.1-.8.1l-5 7.1c-.7-.2-1.5.1-1.9.7l-2.4 3.3-3.1-3.8c-.7-1.2-1.8-2.2-3.2-2.7 2.1-.9 3.6-2.9 3.6-5.4 0-3.2-2.6-5.8-5.8-5.8s-5.8 2.6-5.8 5.8c0 2.4 1.5 4.5 3.6 5.4-2.4.9-4.1 3.2-4.1 5.8v7.6c0 .3.3.6.6.6H638c.5.1.8-.2.8-.5z"/><path class="st4" d="M642.8 59.1c-.3 0-.6.3-.6.6v15.6c0 .1.1.1.2 0 .5-.7 1.2-1.1 2-1.3.2 0 .4-.1.5-.3l4.4-6.2c.3-.5.9-.8 1.5-.8.4 0 .7.1 1.1.3.8.6 1 1.7.4 2.5l-4.3 6.2c-.1.2-.2.4-.1.6.2.8 0 1.7-.5 2.4l-.7 1.1c0 .1 0 .2.1.2h22.7c.3 0 .6-.3.6-.6V59.7c0-.3-.3-.6-.6-.6h-26.7zM50.2 371.6c.1.1.3.2.6.2l15.4-1.7c.3 0 .5.1.7.3 1.1 1.7 2.9 2.7 4.9 2.7 2 0 3.8-1 4.9-2.7.1-.2.4-.3.7-.3l15.4 1.7c.2 0 .4 0 .6-.2.1-.1.2-.3.2-.5v-14.4c0-6.2-5.1-11.3-11.3-11.3-4.8 0-8.9 3.1-10.6 7.3-1.7-4.3-5.8-7.3-10.6-7.3-6.2 0-11.3 5.1-11.3 11.3v14.4c.2.1.3.3.4.5zm15.8-4.4c-.5-2.1-2.4-3.5-4.9-3.5s-4.2 1.7-4.7 3.5h-1.9c.4-2.6 3.2-5.2 6.6-5.2 3.5 0 6.3 2.1 6.9 5.2h-2zm3.6 0c-.6-4-4-6.8-8.4-6.8-2.1 0-4.1.8-5.7 2.3-1.4 1.3-2.2 2.9-2.4 4.5h-1.7c.4-5.1 4.6-9.1 9.8-9.1 5.2 0 9.4 4 9.8 9.1h-1.4zm17.5 0c-.5-2.2-2.4-3.6-4.9-3.6-2.5 0-4.3 1.8-4.7 3.6h-1.9c.3-2.6 3.1-5.3 6.6-5.3 3.6 0 6.4 2.2 6.9 5.3h-2zm5.1 0h-1.6c-.5-4-3.9-6.8-8.4-6.8-2.1 0-4.1.8-5.7 2.3-1.4 1.3-2.3 3-2.4 4.6h-1.6c.2-5.1 4.5-9.1 9.8-9.1 5.3-.1 9.5 3.9 9.9 9zm-9.8-20.4c5.4 0 9.9 4.4 9.9 9.9v5.7c-1.9-3.4-5.6-5.7-9.9-5.7-4.3 0-7.9 2.2-9.9 5.5v-5.4c.1-5.6 4.5-10 9.9-10zm-21.1 0c5.4 0 9.8 4.5 9.8 9.9v5.7c-1.9-3.4-5.6-5.7-9.9-5.7-4.2 0-7.9 2.3-9.8 5.7v-5.7c0-5.5 4.4-9.9 9.9-9.9zm445.1 6c-.4.2-.6.6-.7 1.1l-.8 6.7c-.2 0-.3-.1-.5-.1-1.9-.3-3.6.8-3.8 2.4-.2 1.6 1.1 3.1 3 3.4 1.9.3 3.6-.8 3.8-2.4l1-7.7 5.2 1.9-.8 6c-.2-.1-.4-.1-.5-.1-1.9-.3-3.6.8-3.8 2.4-.2 1.6 1.1 3.1 3 3.4 1.8.2 3.5-.6 3.8-2.2 0-.1 1.4-10.3 1.4-10.3.1-.7-.3-1.3-1-1.6l-8.1-2.9c-.3-.3-.8-.3-1.2 0zm-8.6 14.2c.2-.4.3-.8.2-1.2l-1.7-7.6c.2 0 .4 0 .6-.1 1.8-.5 3-2.1 2.6-3.6-.4-1.6-2.2-2.4-4-2-1.8.5-3 2.1-2.6 3.6l1.9 8.6c-.8-.1-1.6-.3-2.1-.8-.4-.5-.5-1.3-.2-2.5.2-.8-.3-1.6-1.1-1.8-.8-.2-1.6.3-1.8 1.1-.6 2.2-.3 4 .8 5.3 1.4 1.6 3.6 1.8 5 1.8.7 0 1.2-.1 1.3-.1.5-.2.8-.4 1.1-.7zM491.2.3l-.6.4c-.2.2-.3.5-.3.8.1.3.3.5.6.6l.7.1c.1.2.2.5.3.7l-.3.7c-.1.3-.1.6.1.8.2.2.5.3.8.3l.7-.2c.2.2.4.3.6.5v.7c0 .3.2.6.4.7.3.1.6.1.8-.1l.6-.5c.2.1.5.1.8.2l.3.7c.1.3.4.4.7.4.3 0 .6-.2.7-.4l.3-.7c.3 0 .5-.1.8-.2l.6.5c.2.2.5.2.8.1.3-.1.4-.4.4-.7V5c.2-.1.4-.3.6-.5l.7.2c.3.1.6 0 .8-.3.2-.2.2-.5.1-.8l-.3-.7c.1-.2.2-.5.3-.7l.7-.1c.3-.1.5-.3.6-.6s0-.6-.3-.8l-.6-.4v-.8l.6-.4c.2-.2.3-.5.3-.8-.1-.3-.3-.5-.6-.6l-.7-.1c-.1-.2-.2-.5-.3-.7l.3-.7c.1-.3.1-.6-.1-.8-.2-.2-.5-.3-.8-.3l-.7.2c-.2-.2-.4-.3-.6-.5v-.7c0-.3-.2-.6-.4-.7-.3-.1-.6-.1-.8.1l-.6.5c-.2-.1-.5-.1-.8-.2l-.3-.7c-.1-.3-.4-.4-.7-.4-.3 0-.6.2-.7.4l-.4.9c-.3 0-.5.1-.8.2l-.5-.5c-.2-.2-.5-.2-.8-.1-.3.1-.4.4-.4.7v.7c-.2.1-.4.3-.6.5l-.7-.2c-.3-.1-.6 0-.8.3-.2.2-.2.5-.1.8l.4.6c-.1.2-.2.5-.3.7l-.7.1c-.3.1-.5.3-.6.6-.1.3 0 .6.3.8l.6.4V0c-.1 0-.1.2-.1.3zm4.3-2.6c.1-.2.4-.4.7-.4h2.2c.3 0 .5.1.7.4l1.1 1.9c.1.2.1.5 0 .8L499 2.2c-.1.2-.4.4-.7.4h-2.2c-.3 0-.5-.1-.7-.4L494.3.3c-.1-.2-.1-.5 0-.8l1.2-1.8z"/><path class="st4" d="M509.1 8l-.6-.1c0-.1-.1-.3-.1-.4l.4-.5c.2-.3.2-.6 0-.9-.2-.3-.5-.4-.9-.3l-.6.2-.3-.3.1-.6c0-.3-.1-.6-.4-.8s-.7 0-.9.2l-.4.5c-.1 0-.3 0-.4-.1l-.2-.6c-.2-.1-.5-.3-.8-.3-.3 0-.6.3-.7.6l-.1.6c-.1 0-.3.1-.4.2l-.5-.3c-.3-.2-.6-.2-.9 0-.3.2-.4.5-.3.9l.2.6-.3.3-.6-.1c-.3 0-.6.1-.8.4-.1.3 0 .7.2.9l.5.4c0 .1 0 .3-.1.4l-.6.2c-.3.1-.4.4-.4.8 0 .3.3.6.6.6l.6.1c0 .1.1.3.2.4l-.4.5c-.2.3-.2.6 0 .9.2.3.5.4.9.3l.6-.2.3.3-.1.6c0 .3.1.6.4.8.3.1.7 0 .9-.2l.4-.5c.1 0 .3 0 .4.1l.2.6c.1.3.4.5.7.5h.1c.3 0 .6-.3.6-.6l.1-.6c.1 0 .3-.1.4-.1l.5.4c.3.2.6.2.9 0 .3-.2.4-.5.3-.9l-.2-.6.3-.3.6.1c.3 0 .6-.1.8-.4.1-.3 0-.7-.2-.9l-.5-.5c0-.1 0-.3.1-.4l.6-.2c.3-.1.5-.4.5-.8-.2-.6-.4-.9-.7-.9zm-2.6 2l-1.1 1.1c-.1.1-.3.2-.5.1l-1.6-.4c-.2-.1-.3-.2-.4-.4l-.4-1.6c-.1-.2 0-.4.1-.5l1.1-1.1c.1-.1.3-.2.5-.1l1.6.4c.2.1.3.2.4.4l.4 1.6c.1.2 0 .4-.1.5zM503-7.7v.8l-.6.5c-.2.2-.3.5-.3.7.1.3.3.5.5.6l.7.2c.1.2.2.5.3.7l-.4.7c-.2.2-.2.5 0 .8.1.2.4.4.7.4l.8-.1c.2.2.3.4.5.6l-.2.5c-.1.3 0 .6.3.7s.5.2.8.1l.7-.3c.2.1.4.3.7.4l.1.8c0 .3.2.5.5.6.3.1.6 0 .8-.2l.5-.5c.2 0 .5.1.7.1l.4.7c.1.2.4.4.7.4.3 0 .5-.2.7-.4l.3-.7c.3 0 .5-.1.7-.1l.6.5c.2.2.5.2.8.1.3-.1.4-.3.5-.6l.1-.8c.2-.1.4-.3.6-.4l.7.3c.3.1.6.1.8-.1.2-.2.3-.5.2-.8l-.1-.8c.2-.2.3-.4.5-.6h.8c.3 0 .5-.1.7-.4.1-.2.1-.6 0-.8l-.4-.6c.1-.2.2-.5.2-.7l.7-.2c.3-.1.5-.3.5-.6.1-.2-.1-.5-.3-.7l-.6-.4v-.8l.6-.5c.2-.2.3-.5.3-.7s-.3-.5-.5-.6l-.7-.2c-.1-.2-.2-.5-.3-.7l.4-.7c.2-.2.2-.5 0-.8-.1-.2-.4-.4-.7-.4l-.8.1c-.2-.2-.3-.4-.5-.6l.2-.8c.1-.3 0-.6-.3-.7s-.5-.2-.8-.1l-.7.3c-.2-.1-.4-.3-.7-.4l-.1-.7c0-.3-.2-.5-.5-.6-.3-.1-.6 0-.8.2l-.5.5c-.2-.1-.5-.1-.7-.1l-.4-.7c-.1-.3-.4-.4-.7-.4-.3 0-.5.2-.7.4l-.3.7c-.3.1-.5.1-.8.2l-.6-.5c-.2-.2-.5-.2-.8-.1-.3.1-.4.3-.5.6l-.1.8c-.2.1-.4.3-.6.4l-.7-.3c-.3-.1-.6-.1-.8.1-.2.2-.3.5-.2.8l.2.8c-.2.2-.3.4-.5.6h-.8c-.3 0-.5.1-.7.4-.1.2-.1.6 0 .8l.4.6c-.1.2-.2.5-.2.7l-.7.2c-.3.1-.5.3-.5.6-.1.2.1.5.3.7l.6.5zm3.1.8l.9-3.5c.1-.4.4-.8.9-.9l3.5-.9c.4-.1.9 0 1.2.3l2.6 2.6c.3.3.4.7.3 1.1l-.9 3.5c-.1.4-.4.8-.9.9l-3.5.9c-.4.1-.9 0-1.2-.3l-2.6-2.6c-.2-.2-.4-.7-.3-1.1zm57 209.1h2.3c.2.8.8 1.4 1.7 1.4h4.4c1 0 1.7-.8 1.7-1.8s-.8-1.8-1.7-1.8h-2.6c-.2-.8-.9-1.4-1.7-1.4h-4.1c-1 0-1.7.8-1.7 1.8s.8 1.8 1.7 1.8zm-.4-2.3c.1-.1.3-.2.5-.2h4.1c.4 0 .7.3.7.7 0 .2.1.4.2.5.1.1.3.2.5.2h3c.4 0 .7.3.7.7s-.3.7-.7.7h-4.4c-.4 0-.7-.3-.7-.7s-.3-.7-.7-.7h-2.6c-.4 0-.7-.3-.7-.7-.1-.2-.1-.4.1-.5z"/><path class="st4" d="M592.5 211.9c-.1-.1-.4.1-.5.1l-9.5 4.3v-3.8h3.6c.9 0 1.6-.6 1.8-1.4h3.1c1 0 1.8-.8 1.8-1.8s-.8-1.8-1.8-1.8h-5.9c-.9 0-1.6.6-1.8 1.4h-.8v-3c0-.3-.2-.5-.5-.5h-2.1v-3.5c0-.3-.2-.5-.5-.5h-1.9v-3.6c0-.3-.2-.5-.5-.5s-.5.2-.5.5v3.6h-1.9c-.3 0-.5.2-.5.5v3.5H572c-.3 0-.5.2-.5.5v11.7c-.9-1.2-2.3-2.1-3.9-2.3V212c0-.3-.2-.5-.5-.5s-.5.2-.5.5v3.3c-2.8.3-5 2.6-5 5.5v7.3c0 .3.2.5.5.5h30.4c.3 0 .5-.2.5-.5v-15.9c-.2 0-.3-.2-.5-.3zm-12.6 3.6c0 .3-.2.5-.5.5s-.5-.2-.5-.5v-2c0-.3.2-.5.5-.5s.5.2.5.5v2zm-2.6 3v2c0 .3-.2.5-.5.5s-.5-.2-.5-.5v-2c0-.3.2-.5.5-.5s.5.2.5.5zm0-3c0 .3-.2.5-.5.5s-.5-.2-.5-.5v-2c0-.3.2-.5.5-.5s.5.2.5.5v2zm-3.5 3c0-.3.2-.5.5-.5s.5.2.5.5v2c0 .3-.2.5-.5.5s-.5-.2-.5-.5v-2zm9.9-8.5c.4 0 .7-.3.7-.7 0-.4.3-.7.7-.7h5.9c.4 0 .7.3.7.7 0 .4-.3.7-.7.7h-3.4c-.4 0-.7.3-.7.7s-.3.7-.7.7h-6.4v.1c-.4 0-.7-.4-.7-.8s.3-.7.7-.7h3.9zm-3.8-1.6v.5c-.5 0-.7.1-1.1.2v-.8c0-.3.2-.5.5-.5.4.1.6.3.6.6zm-3.1-.5c.3 0 .5.2.5.5v2c0 .3-.2.5-.5.5s-.5-.2-.5-.5v-2c0-.3.2-.5.5-.5zm-3 .5c0-.3.2-.5.5-.5s.5.2.5.5v2c0 .3-.2.5-.5.5s-.5-.2-.5-.5v-2zm.5 4.6c.3 0 .5.2.5.5v2c0 .3-.2.5-.5.5s-.5-.2-.5-.5v-2c0-.3.2-.5.5-.5zm-8 3.5h1.2c2 .2 3.7 1.9 3.9 3.9h-8.8c0-2.1 1.6-3.7 3.7-3.9zm-4 11.2v-6.3h2.3v6.3h-2.3zm3.4 0v-6.3h2.3v6.3h-2.3zm5.6 0H569v-6.3h2.3v6.3zm3.5-2.1c0 .3-.2.5-.5.5s-.5-.2-.5-.5v-2c0-.3.2-.5.5-.5s.5.2.5.5v2zm2 .5c-.3 0-.5-.2-.5-.5v-2c0-.3.2-.5.5-.5s.5.2.5.5v2c0 .3-.2.5-.5.5zm3.1-.5c0 .3-.2.5-.5.5s-.5-.2-.5-.5v-2c0-.3.2-.5.5-.5s.5.2.5.5v2zm-.6-4.6c-.3 0-.5-.2-.5-.5v-2c0-.3.2-.5.5-.5s.5.2.5.5v2c.1.3-.2.5-.5.5zm12.4 6.7h-9.2v-10.1l9.2-4.2v14.3zm-330.3-156c0 .3.1.5.3.7.1.1.4.3.7.3h12.2c.5 0 1-.5 1-1v-8c0-.3-.1-.5-.3-.7-.2-.2-.5-.3-.7-.3h-12.1c-.5 0-1 .5-1 1v8zm12-1.1h-4.8l4.8-4.8v4.8zm-3.6-6.1h2.1l-6.1 6.1h-2.1l6.1-6.1zm-6.5.1h3.7l-3.7 3.7v-3.7zm46.4-2c-.5 0-1 .5-1 1v2.1c0 .3.1.5.3.7.2.2.5.3.7.3h1.9c.5 0 1-.5 1-1v-2.1c0-.3-.1-.5-.3-.7-.2-.2-.5-.3-.7-.3h-1.9z"/><path class="st4" d="M257.8 88.3v2.9c0 1.8 1.5 3.3 3.3 3.3h51.7c1.8 0 3.3-1.5 3.3-3.3V62.5c0-1.9-1.6-3.5-3.5-3.5h-5.4v-9.7c0-.5-.5-1-1-1H278c-.3 0-.5.1-.7.3-.2.2-.3.5-.3.7V59h-1.8v-3.4c0-.3-.1-.5-.3-.7-.2-.2-.5-.3-.7-.3h-12c-.5 0-1 .5-1 1V59c-.5 0-1 .1-1.4.3-.3.1-.5.3-.8.5-.1.1-.2.3-.3.3-.4.4-.7.9-.9 1.4-.1.2-.1.3-.1.5s-.1.3-.1.5V88c.2.1.2.2.2.3zm56.4 2.7c0 .9-.7 1.5-1.5 1.5h-51.5c-.9 0-1.5-.7-1.5-1.5v-1.8h54.6V91zm-1.6-30c.9.1 1.5.8 1.5 1.6v10.1c0 .9-.7 1.5-1.5 1.5h-5.2V61h5.2zM279 50.4h26.3v8.7H279v-8.7zm-15.7 6.2h10V59h-10v-2.4zm-3.5 5.9c0-.4.1-.7.3-1l.1-.1c.3-.3.7-.5 1-.5h15.6v13.3h-15.6c-.8 0-1.4-.6-1.5-1.4V62.5zm19 11.7V61h26.5v26.2h-26.5v-13z"/><path class="st4" d="M280.7 76.2c1 5.4 5.8 9.6 11.5 9.6 5.8 0 10.5-4.1 11.5-9.6.1-.3.1-.7.1-1 .1-.3.1-.7.1-1v-.1c0-6.5-5.2-11.7-11.7-11.7s-11.7 5.2-11.7 11.7v.1c0 .3 0 .7.1 1 0 .3.1.7.1 1zm1.8-2v-.1c0-5.4 4.4-9.7 9.7-9.7 5.4 0 9.7 4.4 9.7 9.7v.1c0 .3 0 .7-.1 1-.1.3-.1.7-.2 1-1 4.4-4.8 7.7-9.5 7.7s-8.5-3.3-9.5-7.7c-.1-.3-.1-.7-.2-1s.1-.6.1-1z"/><path class="st4" d="M283.8 74.2c.1.3.1.7.1 1 .1.3.1.7.2 1 .9 3.6 4.2 6.2 8 6.2s7.1-2.6 8.1-6.2c.1-.3.1-.7.2-1 .1-.3.1-.7.1-1v-.1c0-4.6-3.7-8.4-8.4-8.4-4.6 0-8.4 3.7-8.4 8.4l.1.1zm13.9 3.2c-.5 1-1.4 1.8-2.4 2.4-.1.1-.3.1-.5.1-.3 0-.7-.2-.9-.5-.3-.5-.1-1.1.4-1.4.7-.4 1.3-1 1.7-1.6.1-.1.1-.1.1-.2.3-.3.8-.4 1.2-.1.1.1.1.1.2.1.2.2.3.5.3.7s0 .3-.1.5zm-5.5-9.8c.2 0 .3.1.5.1.3.1.5.5.5.9 0 .5-.5 1-1 1-2.5 0-4.5 2-4.5 4.5v.1c-.1.5-.5.9-1 .9-.4 0-.7-.3-.9-.6-.1-.1-.1-.2-.1-.3v-.1c.1-3.6 2.9-6.5 6.5-6.5zM303 51.9h-21.6c-.5 0-1 .5-1 1v3.9c0 .5.5 1 1 1H303c.5 0 1-.5 1-1v-3.9c-.1-.6-.5-1-1-1zm-1 3.9h-19.6v-1.9H302v1.9z"/></g></svg>